SplineFontDB: 3.0
FontName: Retro16
FullName: Retro16
FamilyName: Retro16
Weight: Regular
Copyright: 
Version: 
ItalicAngle: 0
UnderlinePosition: -100
UnderlineWidth: 50
Ascent: 768
Descent: 192
InvalidEm: 0
LayerCount: 2
Layer: 0 1 "Back" 1
Layer: 1 1 "Fore" 0
XUID: [1021 727 -284916039 1594317]
FSType: 0
OS2Version: 0
OS2_WeightWidthSlopeOnly: 0
OS2_UseTypoMetrics: 1
CreationTime: 1392773318
ModificationTime: 1470183915
PfmFamily: 33
TTFWeight: 400
TTFWidth: 5
LineGap: 0
VLineGap: 90
OS2TypoAscent: 768
OS2TypoAOffset: 0
OS2TypoDescent: -192
OS2TypoDOffset: 0
OS2TypoLinegap: 0
OS2WinAscent: 768
OS2WinAOffset: 0
OS2WinDescent: 192
OS2WinDOffset: 0
HheadAscent: 768
HheadAOffset: 0
HheadDescent: -192
HheadDOffset: 0
OS2Vendor: 'PfEd'
Lookup: 258 0 0 "kerning" { "closer" [150,15,0] } ['kern' ('DFLT' <'dflt' > 'latn' <'dflt' > ) ]
Lookup: 260 0 0 "mark" { "marks"  } ['mark' ('DFLT' <'dflt' > 'latn' <'dflt' > ) ]
MarkAttachClasses: 1
DEI: 91125
KernClass2: 8 5 "closer"
 81 a b c d e h i k l m n o p r s t u v w x z A B D E F G H I J K L M N O Q R S U W Z
 1 f
 1 P
 3 T Y
 1 V
 1 X
 1 C
 1 j
 1 a
 11 d e g q o s
 19 n p r t u v w x y z
 0 {} 0 {} 0 {} 0 {} 0 {} 0 {} -96 {} 0 {} 0 {} 0 {} 0 {} -128 {} -64 {} 0 {} 0 {} 0 {} -96 {} -64 {} -32 {} 0 {} 0 {} -96 {} -64 {} -64 {} -64 {} 0 {} -64 {} -16 {} -16 {} 0 {} 0 {} -64 {} -16 {} -32 {} 0 {} 0 {} 0 {} 0 {} -48 {} 0 {}
ShortTable: maxp 16
  0
  0
  0
  0
  0
  0
  0
  2
  1
  2
  22
  0
  256
  0
  0
  0
EndShort
TtTable: prep
PUSHW_1
 511
SCANCTRL
PUSHB_1
 1
SCANTYPE
SVTCA[y-axis]
MPPEM
PUSHB_1
 8
LT
IF
PUSHB_2
 1
 1
INSTCTRL
EIF
PUSHB_2
 70
 6
CALL
IF
POP
PUSHB_1
 16
EIF
MPPEM
PUSHB_1
 20
GT
IF
POP
PUSHB_1
 128
EIF
SCVTCI
PUSHB_1
 6
CALL
NOT
IF
EIF
PUSHB_1
 20
CALL
EndTTInstrs
TtTable: fpgm
PUSHB_1
 0
FDEF
PUSHB_1
 0
SZP0
MPPEM
PUSHB_1
 42
LT
IF
PUSHB_1
 74
SROUND
EIF
PUSHB_1
 0
SWAP
MIAP[rnd]
RTG
PUSHB_1
 6
CALL
IF
RTDG
EIF
MPPEM
PUSHB_1
 42
LT
IF
RDTG
EIF
DUP
MDRP[rp0,rnd,grey]
PUSHB_1
 1
SZP0
MDAP[no-rnd]
RTG
ENDF

StartChar: n
Encoding: 110 110 0
Width: 448
VWidth: 0
Flags: W
HStem: 0 21G<64 128 320 384> 384 64<128 290.537>
VStem: 64 64<0 384> 320 64<0 355.7>
LayerCount: 2
Fore
SplineSet
320 235 m 6,0,1
 320 268 320 268 319.5 284 c 128,-1,2
 319 300 319 300 314 323 c 128,-1,3
 309 346 309 346 298.5 356.5 c 128,-1,4
 288 367 288 367 268.5 375.5 c 128,-1,5
 249 384 249 384 220 384 c 2,6,-1
 128 384 l 1,7,-1
 128 0 l 1,8,-1
 64 0 l 1,9,-1
 64 448 l 1,10,-1
 223 448 l 2,11,12
 256 448 256 448 282.5 440.5 c 128,-1,13
 309 433 309 433 325.5 423 c 128,-1,14
 342 413 342 413 354 394 c 128,-1,15
 366 375 366 375 371.5 360.5 c 128,-1,16
 377 346 377 346 380 320.5 c 128,-1,17
 383 295 383 295 383.5 281 c 128,-1,18
 384 267 384 267 384 241 c 2,19,-1
 384 0 l 1,20,-1
 320 0 l 1,21,-1
 320 235 l 6,0,1
EndSplineSet
Validated: 19457
EndChar

StartChar: o
Encoding: 111 111 1
Width: 448
VWidth: 0
Flags: W
HStem: -6 65<157.034 290.436> 394 65<158.727 289.059>
VStem: 64.5 64<87.0103 363.891> 320 64<87.9316 363.023>
AnchorPoint: "bottom" 224 -1 basechar 0
AnchorPoint: "top" 224 448 basechar 0
LayerCount: 2
Fore
SplineSet
320 213 m 2,0,-1
 320 234 l 2,1,2
 320 267 320 267 319.5 283.5 c 128,-1,3
 319 300 319 300 314 325 c 128,-1,4
 309 350 309 350 299.5 362.5 c 128,-1,5
 290 375 290 375 271 384.5 c 128,-1,6
 252 394 252 394 224 394 c 128,-1,7
 196 394 196 394 177 384.5 c 128,-1,8
 158 375 158 375 148.5 363 c 128,-1,9
 139 351 139 351 134 325.5 c 128,-1,10
 129 300 129 300 128.5 283.5 c 128,-1,11
 128 267 128 267 128 234 c 2,12,-1
 128 213 l 2,13,14
 128 180 128 180 128.5 164 c 128,-1,15
 129 148 129 148 134 123.5 c 128,-1,16
 139 99 139 99 148.5 88 c 128,-1,17
 158 77 158 77 177 68 c 128,-1,18
 196 59 196 59 224 59 c 128,-1,19
 252 59 252 59 271 68 c 128,-1,20
 290 77 290 77 299.5 88.5 c 128,-1,21
 309 100 309 100 314 124 c 128,-1,22
 319 148 319 148 319.5 164 c 128,-1,23
 320 180 320 180 320 213 c 2,0,-1
384 244 m 2,24,-1
 384 203 l 2,25,26
 384 166 384 166 383 145.5 c 128,-1,27
 382 125 382 125 373.5 92 c 128,-1,28
 365 59 365 59 349 40.5 c 128,-1,29
 333 22 333 22 301.5 8 c 128,-1,30
 270 -6 270 -6 224 -6 c 0,31,32
 191 -6 191 -6 165 1.5 c 128,-1,33
 139 9 139 9 122.5 19.5 c 128,-1,34
 106 30 106 30 94.5 49 c 128,-1,35
 83 68 83 68 77 83.5 c 128,-1,36
 71 99 71 99 68 124.5 c 128,-1,37
 65 150 65 150 64.5 165 c 128,-1,38
 64 180 64 180 64 206 c 2,39,-1
 64 241 l 2,40,41
 64 278 64 278 65 299.5 c 128,-1,42
 66 321 66 321 74.5 355.5 c 128,-1,43
 83 390 83 390 99 409.5 c 128,-1,44
 115 429 115 429 146.5 444 c 128,-1,45
 178 459 178 459 224 459 c 0,46,47
 262 459 262 459 291 450 c 128,-1,48
 320 441 320 441 336.5 422.5 c 128,-1,49
 353 404 353 404 363.5 386 c 128,-1,50
 374 368 374 368 378 339 c 128,-1,51
 382 310 382 310 383 292 c 128,-1,52
 384 274 384 274 384 244 c 2,24,-1
EndSplineSet
Validated: 19457
EndChar

StartChar: m
Encoding: 109 109 3
Width: 704
VWidth: 0
Flags: W
HStem: 0 21G<64 128 320 384 576 640> 385 65<128 289.359 400.328 546.589>
VStem: 64 64<0 384> 320 64<0 354> 576 64<0 356.7>
CounterMasks: 1 38
LayerCount: 2
Fore
SplineSet
576 235 m 2,0,1
 576 268 576 268 575.5 284 c 128,-1,2
 575 300 575 300 570 323.5 c 128,-1,3
 565 347 565 347 554.5 357.5 c 128,-1,4
 544 368 544 368 524.5 376.5 c 128,-1,5
 505 385 505 385 476 385 c 0,6,7
 456 385 456 385 433 377.5 c 128,-1,8
 410 370 410 370 397 362 c 2,9,-1
 384 354 l 1,10,-1
 384 0 l 1,11,-1
 320 0 l 1,12,-1
 320 235 l 2,13,14
 320 268 320 268 319.5 284 c 128,-1,15
 319 300 319 300 314 323 c 128,-1,16
 309 346 309 346 298.5 356.5 c 128,-1,17
 288 367 288 367 268.5 375.5 c 128,-1,18
 249 384 249 384 220 384 c 2,19,-1
 128 384 l 1,20,-1
 128 0 l 1,21,-1
 64 0 l 1,22,-1
 64 448 l 1,23,-1
 223 448 l 2,24,25
 301 448 301 448 341 410 c 1,26,27
 426 450 426 450 479 450 c 0,28,29
 512 450 512 450 538.5 442.5 c 128,-1,30
 565 435 565 435 581.5 425 c 128,-1,31
 598 415 598 415 610 395.5 c 128,-1,32
 622 376 622 376 627.5 361.5 c 128,-1,33
 633 347 633 347 636 321.5 c 128,-1,34
 639 296 639 296 639.5 281.5 c 128,-1,35
 640 267 640 267 640 241 c 2,36,-1
 640 0 l 1,37,-1
 576 0 l 1,38,-1
 576 235 l 2,0,1
EndSplineSet
Validated: 19457
EndChar

StartChar: h
Encoding: 104 104 4
Width: 448
VWidth: 0
Flags: W
HStem: 0 21G<64 128 320 384> 384 64<128 290.537> 620 20G<64 128>
VStem: 64 64<0 384 448 640> 320 64<0 355.7>
LayerCount: 2
Fore
SplineSet
320 235 m 2,0,1
 320 268 320 268 319.5 284 c 128,-1,2
 319 300 319 300 314 323 c 128,-1,3
 309 346 309 346 298.5 356.5 c 128,-1,4
 288 367 288 367 268.5 375.5 c 128,-1,5
 249 384 249 384 220 384 c 2,6,-1
 128 384 l 1,7,-1
 128 0 l 1,8,-1
 64 0 l 1,9,-1
 64 640 l 1,10,-1
 128 640 l 1,11,-1
 128 448 l 1,12,-1
 223 448 l 2,13,14
 256 448 256 448 282.5 440.5 c 128,-1,15
 309 433 309 433 325.5 423 c 128,-1,16
 342 413 342 413 354 394 c 128,-1,17
 366 375 366 375 371.5 360.5 c 128,-1,18
 377 346 377 346 380 320.5 c 128,-1,19
 383 295 383 295 383.5 281 c 128,-1,20
 384 267 384 267 384 241 c 2,21,-1
 384 0 l 1,22,-1
 320 0 l 1,23,-1
 320 235 l 2,0,1
EndSplineSet
Validated: 19457
EndChar

StartChar: l
Encoding: 108 108 5
Width: 192
VWidth: 0
Flags: WO
HStem: 0 21G<64 128> 630 20G<64 128>
VStem: 64 64<0 650>
LayerCount: 2
Fore
SplineSet
64 0 m 9,0,-1
 64 650 l 1,1,-1
 128 650 l 1,2,-1
 128 0 l 17,3,4
 64 0 l 9,0,-1
EndSplineSet
EndChar

StartChar: t
Encoding: 116 116 6
Width: 384
VWidth: 0
Flags: W
HStem: 0 64<221.463 384> 384 64<64 128 192 320> 620 20G<128 192>
VStem: 128 64<92.2998 384 448 640>
LayerCount: 2
Fore
SplineSet
384 64 m 1,0,-1
 384 0 l 1,1,-1
 289 0 l 2,2,3
 256 0 256 0 229.5 7.5 c 128,-1,4
 203 15 203 15 186.5 25 c 128,-1,5
 170 35 170 35 158 54 c 128,-1,6
 146 73 146 73 140.5 87.5 c 128,-1,7
 135 102 135 102 132 127.5 c 128,-1,8
 129 153 129 153 128.5 167 c 128,-1,9
 128 181 128 181 128 207 c 2,10,-1
 128 384 l 1,11,-1
 64 384 l 1,12,-1
 64 448 l 1,13,-1
 128 448 l 1,14,-1
 128 640 l 1,15,-1
 192 640 l 1,16,-1
 192 448 l 1,17,-1
 320 448 l 1,18,-1
 320 384 l 1,19,-1
 192 384 l 1,20,-1
 192 213 l 2,21,22
 192 180 192 180 192.5 164 c 128,-1,23
 193 148 193 148 198 125 c 128,-1,24
 203 102 203 102 213.5 91.5 c 128,-1,25
 224 81 224 81 243.5 72.5 c 128,-1,26
 263 64 263 64 292 64 c 2,27,-1
 384 64 l 1,0,-1
EndSplineSet
Validated: 19457
EndChar

StartChar: e
Encoding: 101 101 7
Width: 448
VWidth: 0
Flags: W
HStem: 0 64<154.227 384> 192 64<128 320> 396 64<158.732 292.089>
VStem: 64.5 63.5<90.4009 192 256 364.508> 320 64<256 366.45>
AnchorPoint: "top" 224 448 basechar 0
LayerCount: 2
Fore
SplineSet
128 256 m 1,0,-1
 320 256 l 1,1,2
 320 327 320 327 302 361.5 c 128,-1,3
 284 396 284 396 224 396 c 0,4,5
 198 396 198 396 180 388 c 128,-1,6
 162 380 162 380 152 368.5 c 128,-1,7
 142 357 142 357 136.5 337 c 128,-1,8
 131 317 131 317 129.5 299.5 c 128,-1,9
 128 282 128 282 128 256 c 1,0,-1
128 192 m 1,10,11
 128 126 128 126 146 95 c 128,-1,12
 164 64 164 64 224 64 c 2,13,-1
 384 64 l 1,14,-1
 384 0 l 1,15,-1
 224 0 l 2,16,17
 191 0 191 0 165 7 c 128,-1,18
 139 14 139 14 122.5 24.5 c 128,-1,19
 106 35 106 35 94.5 53.5 c 128,-1,20
 83 72 83 72 77 87 c 128,-1,21
 71 102 71 102 68 127 c 128,-1,22
 65 152 65 152 64.5 166.5 c 128,-1,23
 64 181 64 181 64 207 c 2,24,-1
 64 241 l 2,25,26
 64 278 64 278 65 299.5 c 128,-1,27
 66 321 66 321 74.5 356 c 128,-1,28
 83 391 83 391 99 410.5 c 128,-1,29
 115 430 115 430 146.5 445 c 128,-1,30
 178 460 178 460 224 460 c 0,31,32
 268 460 268 460 299 446.5 c 128,-1,33
 330 433 330 433 346 414.5 c 128,-1,34
 362 396 362 396 371 365.5 c 128,-1,35
 380 335 380 335 382 312 c 128,-1,36
 384 289 384 289 384 256 c 2,37,-1
 384 192 l 1,38,-1
 128 192 l 1,10,11
EndSplineSet
Validated: 19457
EndChar

StartChar: i
Encoding: 105 105 8
Width: 192
VWidth: 0
Flags: W
HStem: 0 21G<64 128> 428 20G<64 128> 576 64<64 128>
VStem: 64 64<0 448 576 640>
LayerCount: 2
Fore
SplineSet
64 448 m 29,0,-1
 128 448 l 1,1,-1
 128 0 l 1,2,-1
 64 0 l 1,3,-1
 64 448 l 29,0,-1
64 640 m 29,4,-1
 128 640 l 1,5,-1
 128 576 l 1,6,-1
 64 576 l 1,7,-1
 64 640 l 29,4,-1
EndSplineSet
Validated: 19457
EndChar

StartChar: u
Encoding: 117 117 9
Width: 448
VWidth: 0
Flags: W
HStem: -5 64<157.034 292.298> 428 20G<64 128 320 384>
VStem: 64 64<87.4941 448> 320 64<85.9547 448>
AnchorPoint: "top" 224 448 basechar 0
LayerCount: 2
Fore
SplineSet
320 448 m 25,0,-1
 384 448 l 1,1,-1
 384 204 l 2,2,3
 384 167 384 167 383 146.5 c 128,-1,4
 382 126 382 126 373.5 93 c 128,-1,5
 365 60 365 60 349 41.5 c 128,-1,6
 333 23 333 23 301.5 9 c 128,-1,7
 270 -5 270 -5 224 -5 c 0,8,9
 191 -5 191 -5 165 2.5 c 128,-1,10
 139 10 139 10 122.5 20.5 c 128,-1,11
 106 31 106 31 94.5 50 c 128,-1,12
 83 69 83 69 77 84.5 c 128,-1,13
 71 100 71 100 68 125.5 c 128,-1,14
 65 151 65 151 64.5 166 c 128,-1,15
 64 181 64 181 64 207 c 2,16,-1
 64 448 l 1,17,-1
 128 448 l 1,18,-1
 128 213 l 2,19,20
 128 180 128 180 128.5 164 c 128,-1,21
 129 148 129 148 134 123.5 c 128,-1,22
 139 99 139 99 148.5 88 c 128,-1,23
 158 77 158 77 177 68 c 128,-1,24
 196 59 196 59 224 59 c 128,-1,25
 252 59 252 59 271 67.5 c 128,-1,26
 290 76 290 76 299.5 86.5 c 128,-1,27
 309 97 309 97 314 121 c 128,-1,28
 319 145 319 145 319.5 161.5 c 128,-1,29
 320 178 320 178 320 213 c 2,30,-1
 320 448 l 25,0,-1
EndSplineSet
Validated: 19457
EndChar

StartChar: c
Encoding: 99 99 10
Width: 448
VWidth: 0
Flags: W
HStem: -4 65<160.357 303.296> 387 65<160.357 303.296>
VStem: 64.5 63.5<91.4165 356.583> 320 64<74.4131 128 320 373.587>
AnchorPoint: "top" 224 448 basechar 0
AnchorPoint: "bottom" 224 0 basechar 0
LayerCount: 2
Fore
SplineSet
224 -4 m 1,0,1
 191 -4 191 -4 165 5 c 128,-1,2
 139 14 139 14 122.5 24.5 c 128,-1,3
 106 35 106 35 94.5 53.5 c 128,-1,4
 83 72 83 72 77 87 c 128,-1,5
 71 102 71 102 68 127 c 128,-1,6
 65 152 65 152 64.5 166.5 c 128,-1,7
 64 181 64 181 64 207 c 2,8,-1
 64 241 l 2,9,10
 64 267 64 267 64.5 281.5 c 128,-1,11
 65 296 65 296 68 321 c 128,-1,12
 71 346 71 346 77 361 c 128,-1,13
 83 376 83 376 94.5 394.5 c 128,-1,14
 106 413 106 413 122.5 423.5 c 128,-1,15
 139 434 139 434 165 443 c 128,-1,16
 191 452 191 452 224 452 c 1,17,18
 263 452 263 452 288 448 c 129,-1,19
 313 444 313 444 336 430 c 1,20,21
 360 417 360 417 371.5 389.5 c 129,-1,22
 383 362 383 362 384 320 c 1,23,-1
 320 320 l 1,24,25
 318 361 318 361 300 374 c 1,26,27
 280 387 280 387 224 387 c 1,28,29
 196 387 196 387 177 377 c 0,30,31
 164 370 164 370 148 356 c 0,32,33
 140 349 140 349 134 323 c 0,34,35
 129 302 129 302 128 284 c 0,36,37
 128 268 128 268 128 235 c 2,38,-1
 128 213 l 2,39,40
 128 180 128 180 128 164 c 0,41,42
 129 146 129 146 134 125 c 0,43,44
 140 99 140 99 148 92 c 0,45,46
 164 78 164 78 177 71 c 0,47,48
 196 61 196 61 224 61 c 1,49,50
 280 61 280 61 300 74 c 1,51,52
 318 87 318 87 320 128 c 1,53,-1
 384 128 l 1,54,55
 383 86 383 86 371.5 58.5 c 129,-1,56
 360 31 360 31 336 18 c 1,57,58
 313 4 313 4 288 0 c 1,59,60
 262 -4 262 -4 224 -4 c 1,0,1
EndSplineSet
Validated: 3073
EndChar

StartChar: b
Encoding: 98 98 11
Width: 448
VWidth: 0
Flags: W
HStem: 0 64<128 291.469> 384 64<128 291.469> 620 20G<64 128>
VStem: 64 64<64 384 448 640> 320 64<92.0547 355.945>
LayerCount: 2
Fore
SplineSet
223 384 m 2,0,-1
 128 384 l 1,1,-1
 128 64 l 1,2,-1
 223 64 l 2,3,4
 251 64 251 64 270 72.5 c 128,-1,5
 289 81 289 81 299 91.5 c 128,-1,6
 309 102 309 102 313.5 125 c 128,-1,7
 318 148 318 148 319 164.5 c 128,-1,8
 320 181 320 181 320 213 c 2,9,-1
 320 235 l 2,10,11
 320 267 320 267 319 283.5 c 128,-1,12
 318 300 318 300 313.5 323 c 128,-1,13
 309 346 309 346 299 356.5 c 128,-1,14
 289 367 289 367 270 375.5 c 128,-1,15
 251 384 251 384 223 384 c 2,0,-1
223 0 m 2,16,-1
 64 0 l 1,17,-1
 64 640 l 1,18,-1
 128 640 l 1,19,-1
 128 448 l 1,20,-1
 223 448 l 2,21,22
 269 448 269 448 301 434 c 128,-1,23
 333 420 333 420 348.5 402 c 128,-1,24
 364 384 364 384 372.5 352 c 128,-1,25
 381 320 381 320 382.5 298.5 c 128,-1,26
 384 277 384 277 384 241 c 2,27,-1
 384 207 l 2,28,29
 384 171 384 171 382.5 149.5 c 128,-1,30
 381 128 381 128 372.5 96 c 128,-1,31
 364 64 364 64 348.5 46 c 128,-1,32
 333 28 333 28 301 14 c 128,-1,33
 269 0 269 0 223 0 c 2,16,-1
EndSplineSet
Validated: 19457
EndChar

StartChar: d
Encoding: 100 100 12
Width: 448
VWidth: 0
Flags: W
HStem: 0 64<155.757 320> 384 64<155.757 320> 620 20G<320 384>
VStem: 64.5 64<90.52 357.48> 320 64<64 384 448 640>
LayerCount: 2
Fore
SplineSet
224 384 m 2,0,1
 196 384 196 384 177 375.5 c 128,-1,2
 158 367 158 367 148.5 356.5 c 128,-1,3
 139 346 139 346 134 323 c 128,-1,4
 129 300 129 300 128.5 284 c 128,-1,5
 128 268 128 268 128 235 c 2,6,-1
 128 213 l 2,7,8
 128 180 128 180 128.5 164 c 128,-1,9
 129 148 129 148 134 125 c 128,-1,10
 139 102 139 102 148.5 91.5 c 128,-1,11
 158 81 158 81 177 72.5 c 128,-1,12
 196 64 196 64 224 64 c 2,13,-1
 320 64 l 1,14,-1
 320 384 l 1,15,-1
 224 384 l 2,0,1
224 0 m 2,16,17
 191 0 191 0 165 7 c 128,-1,18
 139 14 139 14 122.5 24.5 c 128,-1,19
 106 35 106 35 94.5 53.5 c 128,-1,20
 83 72 83 72 77 87 c 128,-1,21
 71 102 71 102 68 127 c 128,-1,22
 65 152 65 152 64.5 166.5 c 128,-1,23
 64 181 64 181 64 207 c 2,24,-1
 64 241 l 2,25,26
 64 267 64 267 64.5 281.5 c 128,-1,27
 65 296 65 296 68 321 c 128,-1,28
 71 346 71 346 77 361 c 128,-1,29
 83 376 83 376 94.5 394.5 c 128,-1,30
 106 413 106 413 122.5 423.5 c 128,-1,31
 139 434 139 434 165 441 c 128,-1,32
 191 448 191 448 224 448 c 2,33,-1
 320 448 l 1,34,-1
 320 640 l 1,35,-1
 384 640 l 1,36,-1
 384 0 l 1,37,-1
 224 0 l 2,16,17
EndSplineSet
Validated: 19457
EndChar

StartChar: p
Encoding: 112 112 13
Width: 448
VWidth: 0
Flags: W
HStem: 0 64<128 291.469> 384 64<128 291.469>
VStem: 64 64<-192 0 64 384> 320 64<92.0547 355.945>
LayerCount: 2
Fore
SplineSet
223 64 m 2,0,1
 251 64 251 64 270 72.5 c 128,-1,2
 289 81 289 81 299 91.5 c 128,-1,3
 309 102 309 102 313.5 125 c 128,-1,4
 318 148 318 148 319 164.5 c 128,-1,5
 320 181 320 181 320 213 c 2,6,-1
 320 235 l 2,7,8
 320 267 320 267 319 283.5 c 128,-1,9
 318 300 318 300 313.5 323 c 128,-1,10
 309 346 309 346 299 356.5 c 128,-1,11
 289 367 289 367 270 375.5 c 128,-1,12
 251 384 251 384 223 384 c 2,13,-1
 128 384 l 1,14,-1
 128 64 l 1,15,-1
 223 64 l 2,0,1
223 448 m 2,16,17
 269 448 269 448 301 434 c 128,-1,18
 333 420 333 420 348.5 402 c 128,-1,19
 364 384 364 384 372.5 352 c 128,-1,20
 381 320 381 320 382.5 298.5 c 128,-1,21
 384 277 384 277 384 241 c 2,22,-1
 384 207 l 2,23,24
 384 171 384 171 382.5 149.5 c 128,-1,25
 381 128 381 128 372.5 96 c 128,-1,26
 364 64 364 64 348.5 46 c 128,-1,27
 333 28 333 28 301 14 c 128,-1,28
 269 0 269 0 223 0 c 2,29,-1
 128 0 l 1,30,-1
 128 -192 l 1,31,-1
 64 -192 l 1,32,-1
 64 448 l 1,33,-1
 223 448 l 2,16,17
EndSplineSet
Validated: 19457
EndChar

StartChar: f
Encoding: 102 102 14
Width: 384
VWidth: 0
Flags: W
HStem: 0 21G<128 192> 320 64<64 128 192 320> 576 64<221.463 384>
VStem: 128 64<0 320 384 547.7>
LayerCount: 2
Fore
SplineSet
384 576 m 1,0,-1
 292 576 l 2,1,2
 263 576 263 576 243.5 567.5 c 128,-1,3
 224 559 224 559 213.5 548.5 c 128,-1,4
 203 538 203 538 198 515 c 128,-1,5
 193 492 193 492 192.5 476 c 128,-1,6
 192 460 192 460 192 427 c 2,7,-1
 192 384 l 1,8,-1
 320 384 l 1,9,-1
 320 320 l 1,10,-1
 192 320 l 1,11,-1
 192 0 l 1,12,-1
 128 0 l 1,13,-1
 128 320 l 1,14,-1
 64 320 l 1,15,-1
 64 384 l 1,16,-1
 128 384 l 1,17,-1
 128 433 l 2,18,19
 128 459 128 459 128.5 473 c 128,-1,20
 129 487 129 487 132 512.5 c 128,-1,21
 135 538 135 538 140.5 552.5 c 128,-1,22
 146 567 146 567 158 586 c 128,-1,23
 170 605 170 605 186.5 615 c 128,-1,24
 203 625 203 625 229.5 632.5 c 128,-1,25
 256 640 256 640 289 640 c 2,26,-1
 384 640 l 1,27,-1
 384 576 l 1,0,-1
EndSplineSet
Validated: 19457
EndChar

StartChar: a
Encoding: 97 97 15
Width: 448
VWidth: 0
Flags: W
HStem: 0 64<148.671 320> 191 65<148.671 320> 384 64<128 293.773>
VStem: 64 65<81.9188 172.619> 320 64<64 191 256 357.599>
AnchorPoint: "top" 224 448.023 basechar 0
LayerCount: 2
Fore
SplineSet
320 191 m 1,0,-1
 221 191 l 2,1,2
 129 191 129 191 129 127.5 c 128,-1,3
 129 64 129 64 221 64 c 2,4,-1
 320 64 l 1,5,-1
 320 191 l 1,0,-1
320 256 m 1,6,7
 320 322 320 322 302 353 c 128,-1,8
 284 384 284 384 224 384 c 2,9,-1
 128 384 l 1,10,-1
 128 448 l 1,11,-1
 224 448 l 2,12,13
 260 448 260 448 283 442 c 0,14,15
 309 434 309 434 325.5 423.5 c 128,-1,16
 342 413 342 413 353.5 394.5 c 128,-1,17
 365 376 365 376 371 361 c 128,-1,18
 377 346 377 346 380 321 c 128,-1,19
 383 296 383 296 383.5 281.5 c 128,-1,20
 384 267 384 267 384 241 c 2,21,-1
 384 0 l 1,22,-1
 221 0 l 2,23,24
 64 0 64 0 64 129 c 0,25,26
 64 256 64 256 221 256 c 2,27,-1
 320 256 l 1,6,7
EndSplineSet
Validated: 3073
EndChar

StartChar: q
Encoding: 113 113 16
Width: 448
VWidth: 0
Flags: W
HStem: 0 64<156.531 320> 384 64<156.531 320>
VStem: 64 64<92.0547 355.945> 320 64<-192 0 64 384>
LayerCount: 2
Fore
SplineSet
225 64 m 6,0,-1
 320 64 l 1,1,-1
 320 384 l 1,2,-1
 225 384 l 2,3,4
 197 384 197 384 178 375.5 c 128,-1,5
 159 367 159 367 149 356.5 c 128,-1,6
 139 346 139 346 134.5 323 c 128,-1,7
 130 300 130 300 129 283.5 c 128,-1,8
 128 267 128 267 128 235 c 2,9,-1
 128 213 l 2,10,11
 128 181 128 181 129 164.5 c 128,-1,12
 130 148 130 148 134.5 125 c 128,-1,13
 139 102 139 102 149 91.5 c 128,-1,14
 159 81 159 81 178 72.5 c 128,-1,15
 197 64 197 64 225 64 c 6,0,-1
225 448 m 6,16,-1
 384 448 l 1,17,-1
 384 -192 l 1,18,-1
 320 -192 l 1,19,-1
 320 0 l 1,20,-1
 225 0 l 2,21,22
 179 0 179 0 147 14 c 128,-1,23
 115 28 115 28 99.5 46 c 128,-1,24
 84 64 84 64 75.5 96 c 128,-1,25
 67 128 67 128 65.5 149.5 c 128,-1,26
 64 171 64 171 64 207 c 2,27,-1
 64 241 l 2,28,29
 64 277 64 277 65.5 298.5 c 128,-1,30
 67 320 67 320 75.5 352 c 128,-1,31
 84 384 84 384 99.5 402 c 128,-1,32
 115 420 115 420 147 434 c 128,-1,33
 179 448 179 448 225 448 c 6,16,-1
EndSplineSet
Validated: 19457
EndChar

StartChar: s
Encoding: 115 115 17
Width: 448
VWidth: 0
Flags: W
HStem: -4 65<144.985 289.963> 256.5 63.5<131.961 290.717> 384 64<131.961 352>
VStem: 64 64<74.4131 128 329.127 374.873> 320 64<91.6814 227.17>
AnchorPoint: "top" 224 448 basechar 0
LayerCount: 2
Fore
SplineSet
224 384 m 2,0,1
 128 384 128 384 128 352 c 128,-1,2
 128 320 128 320 224 320 c 0,3,4
 275 320 275 320 309 303 c 128,-1,5
 343 286 343 286 358 258 c 128,-1,6
 373 230 373 230 378.5 207.5 c 128,-1,7
 384 185 384 185 384 160 c 0,8,9
 384 141 384 141 381 123.5 c 128,-1,10
 378 106 378 106 368.5 81 c 128,-1,11
 359 56 359 56 342.5 38.5 c 128,-1,12
 326 21 326 21 295.5 8.5 c 128,-1,13
 265 -4 265 -4 224 -4 c 0,14,15
 186 -4 186 -4 160.5 0.5 c 128,-1,16
 135 5 135 5 111.5 18 c 128,-1,17
 88 31 88 31 76.5 58.5 c 128,-1,18
 65 86 65 86 64 128 c 1,19,-1
 128 128 l 1,20,21
 130 87 130 87 148.5 74 c 128,-1,22
 167 61 167 61 224 61 c 0,23,24
 254 61 254 61 274.5 71.5 c 128,-1,25
 295 82 295 82 304 99.5 c 128,-1,26
 313 117 313 117 316.5 131.5 c 128,-1,27
 320 146 320 146 320 161 c 128,-1,28
 320 176 320 176 316.5 190 c 128,-1,29
 313 204 313 204 304 220 c 128,-1,30
 295 236 295 236 274.5 246 c 128,-1,31
 254 256 254 256 224 256 c 0,32,33
 193 256 193 256 177 256.5 c 128,-1,34
 161 257 161 257 135.5 262 c 128,-1,35
 110 267 110 267 97.5 276.5 c 128,-1,36
 85 286 85 286 74.5 305 c 128,-1,37
 64 324 64 324 64 352 c 128,-1,38
 64 380 64 380 74.5 399 c 128,-1,39
 85 418 85 418 97.5 427.5 c 128,-1,40
 110 437 110 437 135.5 442 c 128,-1,41
 161 447 161 447 177 447.5 c 128,-1,42
 193 448 193 448 224 448 c 2,43,-1
 352 448 l 1,44,-1
 352 384 l 1,45,-1
 224 384 l 2,0,1
EndSplineSet
Validated: 19457
EndChar

StartChar: g
Encoding: 103 103 18
Width: 448
VWidth: 0
Flags: W
HStem: -192 64<96 293.773> 0 64<155.757 320> 384 64<155.757 320>
VStem: 64.5 64<90.52 357.48> 320 64<-101.599 0 64 384>
AnchorPoint: "top" 224 448 basechar 0
LayerCount: 2
Fore
SplineSet
320 0 m 1,0,1
 224 0 l 2,2,3
 191 0 191 0 165 7 c 128,-1,4
 139 14 139 14 122.5 24.5 c 128,-1,5
 106 35 106 35 94.5 53.5 c 128,-1,6
 83 72 83 72 77 87 c 128,-1,7
 71 102 71 102 68 127 c 128,-1,8
 65 152 65 152 64.5 166.5 c 128,-1,9
 64 181 64 181 64 207 c 2,10,-1
 64 241 l 2,11,12
 64 267 64 267 64.5 281.5 c 128,-1,13
 65 296 65 296 68 321 c 128,-1,14
 71 346 71 346 77 361 c 128,-1,15
 83 376 83 376 94.5 394.5 c 128,-1,16
 106 413 106 413 122.5 423.5 c 128,-1,17
 139 434 139 434 165 441 c 128,-1,18
 191 448 191 448 224 448 c 2,19,-1
 384 448 l 1,20,-1
 384 15 l 2,21,22
 384 -11 384 -11 383.5 -25.5 c 128,-1,23
 383 -40 383 -40 380 -65 c 128,-1,24
 377 -90 377 -90 371 -105 c 128,-1,25
 365 -120 365 -120 353.5 -138.5 c 128,-1,26
 342 -157 342 -157 325.5 -167.5 c 128,-1,27
 309 -178 309 -178 283 -185 c 128,-1,28
 257 -192 257 -192 224 -192 c 2,29,-1
 96 -192 l 1,30,-1
 96 -128 l 1,31,-1
 224 -128 l 2,32,33
 284 -128 284 -128 302 -97 c 128,-1,34
 320 -66 320 -66 320 0 c 1,0,1
224 64 m 2,35,-1
 320 64 l 1,36,-1
 320 384 l 1,37,-1
 224 384 l 2,38,39
 196 384 196 384 177 375.5 c 128,-1,40
 158 367 158 367 148.5 356.5 c 128,-1,41
 139 346 139 346 134 323 c 128,-1,42
 129 300 129 300 128.5 284 c 128,-1,43
 128 268 128 268 128 235 c 2,44,-1
 128 213 l 2,45,46
 128 180 128 180 128.5 164 c 128,-1,47
 129 148 129 148 134 125 c 128,-1,48
 139 102 139 102 148.5 91.5 c 128,-1,49
 158 81 158 81 177 72.5 c 128,-1,50
 196 64 196 64 224 64 c 2,35,-1
EndSplineSet
Validated: 19457
EndChar

StartChar: v
Encoding: 118 118 19
Width: 448
VWidth: 0
Flags: W
HStem: 0 21G<174.884 262.116> 428 20G<44 124.11 323.89 393>
LayerCount: 2
Fore
SplineSet
44 448 m 1,0,-1
 118 448 l 1,1,-1
 224 101 l 1,2,-1
 330 448 l 1,3,-1
 393 448 l 1,4,-1
 256 0 l 1,5,-1
 181 0 l 1,6,-1
 44 448 l 1,0,-1
EndSplineSet
Validated: 19457
EndChar

StartChar: y
Encoding: 121 121 20
Width: 448
VWidth: 0
Flags: W
HStem: -192 64<96 293.773> 0 64<155.757 320> 428 20G<64 128 320 384>
VStem: 64 64<90.9062 448> 320 64<-101.599 0 64 448>
AnchorPoint: "top" 224 448 basechar 0
LayerCount: 2
Fore
SplineSet
128 448 m 9,0,-1
 128 213 l 2,1,2
 128 180 128 180 128.5 164 c 128,-1,3
 129 148 129 148 134 125 c 128,-1,4
 139 102 139 102 148.5 91.5 c 128,-1,5
 158 81 158 81 177 72.5 c 128,-1,6
 196 64 196 64 224 64 c 2,7,-1
 320 64 l 1,8,-1
 320 448 l 1,9,-1
 384 448 l 1,10,-1
 384 15 l 2,11,12
 384 -11 384 -11 383.5 -25.5 c 128,-1,13
 383 -40 383 -40 380 -65 c 128,-1,14
 377 -90 377 -90 371 -105 c 128,-1,15
 365 -120 365 -120 353.5 -138.5 c 128,-1,16
 342 -157 342 -157 325.5 -167.5 c 128,-1,17
 309 -178 309 -178 283 -185 c 128,-1,18
 257 -192 257 -192 224 -192 c 2,19,-1
 96 -192 l 1,20,-1
 96 -128 l 1,21,-1
 224 -128 l 2,22,23
 284 -128 284 -128 302 -97 c 128,-1,24
 320 -66 320 -66 320 0 c 1,25,-1
 224 0 l 2,26,27
 191 0 191 0 165 7 c 128,-1,28
 139 14 139 14 122.5 24.5 c 128,-1,29
 106 35 106 35 94.5 53.5 c 128,-1,30
 83 72 83 72 77 87 c 128,-1,31
 71 102 71 102 68 127 c 128,-1,32
 65 152 65 152 64.5 166.5 c 128,-1,33
 64 181 64 181 64 207 c 2,34,-1
 64 448 l 1,35,-1
 128 448 l 9,0,-1
EndSplineSet
Validated: 19457
EndChar

StartChar: j
Encoding: 106 106 21
Width: 320
VWidth: 0
Flags: W
HStem: -192 64<0 165.773> 428 20G<192 256> 576 64<192 256>
VStem: 192 64<-101.599 448 576 640>
LayerCount: 2
Fore
SplineSet
192 640 m 29,0,-1
 256 640 l 1,1,-1
 256 576 l 1,2,-1
 192 576 l 1,3,-1
 192 640 l 29,0,-1
192 0 m 6,4,-1
 192 448 l 1,5,-1
 256 448 l 1,6,-1
 256 15 l 2,7,8
 256 -11 256 -11 255.5 -25.5 c 128,-1,9
 255 -40 255 -40 252 -65 c 128,-1,10
 249 -90 249 -90 243 -105 c 128,-1,11
 237 -120 237 -120 225.5 -138.5 c 128,-1,12
 214 -157 214 -157 197.5 -167.5 c 128,-1,13
 181 -178 181 -178 155 -185 c 128,-1,14
 129 -192 129 -192 96 -192 c 2,15,-1
 0 -192 l 1,16,-1
 0 -128 l 1,17,-1
 96 -128 l 2,18,19
 156 -128 156 -128 174 -97 c 128,-1,20
 192 -66 192 -66 192 0 c 6,4,-1
EndSplineSet
Validated: 19457
EndChar

StartChar: k
Encoding: 107 107 22
Width: 448
VWidth: 0
Flags: W
HStem: 0 21G<64 128 320 384> 191 65<128 254.88> 428 20G<320 384> 620 20G<64 128>
VStem: 64 64<0 191 256 640> 320 64<0 131.15 315.157 448>
LayerCount: 2
Fore
SplineSet
256 224 m 1,0,1
 295 224 295 224 339.5 177.5 c 128,-1,2
 384 131 384 131 384 64 c 2,3,-1
 384 0 l 1,4,-1
 320 0 l 1,5,-1
 320 64 l 2,6,7
 320 118 320 118 279.5 154.5 c 128,-1,8
 239 191 239 191 192 191 c 2,9,-1
 128 191 l 1,10,-1
 128 0 l 1,11,-1
 64 0 l 1,12,-1
 64 640 l 5,13,-1
 128 640 l 1,14,-1
 128 256 l 1,15,-1
 192 256 l 2,16,17
 239 256 239 256 279.5 293 c 128,-1,18
 320 330 320 330 320 384 c 2,19,-1
 320 448 l 1,20,-1
 384 448 l 1,21,-1
 384 384 l 2,22,23
 384 317 384 317 339.5 270.5 c 128,-1,24
 295 224 295 224 256 224 c 1,0,1
EndSplineSet
Validated: 19457
EndChar

StartChar: r
Encoding: 114 114 23
Width: 384
VWidth: 1024
Flags: W
HStem: 0 21G<64 128> 384 64<185.951 352>
VStem: 64 64<0 334.072 389 448>
LayerCount: 2
Fore
SplineSet
64 0 m 1,0,-1
 64 448 l 1,1,-1
 128 448 l 1,2,-1
 128 389 l 2,3,4
 128 393 128 393 132.5 400 c 128,-1,5
 137 407 137 407 148.5 415.5 c 128,-1,6
 160 424 160 424 177 431 c 128,-1,7
 194 438 194 438 222.5 443 c 128,-1,8
 251 448 251 448 285 448 c 2,9,-1
 352 448 l 1,10,-1
 352 384 l 1,11,-1
 284 384 l 2,12,13
 213 384 213 384 170.5 354 c 128,-1,14
 128 324 128 324 128 270 c 2,15,-1
 128 0 l 1,16,-1
 64 0 l 1,0,-1
EndSplineSet
Validated: 19457
EndChar

StartChar: w
Encoding: 119 119 24
Width: 576
VWidth: 0
Flags: W
HStem: 0 64<157.463 256 320 448> 428 20G<64 128 256 320 448 512>
VStem: 64 64<92.2998 448> 256 64<64 448> 448 64<64 448>
CounterMasks: 1 38
LayerCount: 2
Fore
SplineSet
128 213 m 2,0,1
 128 180 128 180 128.5 164 c 128,-1,2
 129 148 129 148 134 125 c 128,-1,3
 139 102 139 102 149.5 91.5 c 128,-1,4
 160 81 160 81 179.5 72.5 c 128,-1,5
 199 64 199 64 228 64 c 2,6,-1
 256 64 l 1,7,-1
 256 448 l 1,8,-1
 320 448 l 1,9,-1
 320 64 l 1,10,-1
 448 64 l 1,11,-1
 448 448 l 1,12,-1
 512 448 l 1,13,-1
 512 0 l 1,14,-1
 225 0 l 2,15,16
 192 0 192 0 165.5 7.5 c 128,-1,17
 139 15 139 15 122.5 25 c 128,-1,18
 106 35 106 35 94 54 c 128,-1,19
 82 73 82 73 76.5 87.5 c 128,-1,20
 71 102 71 102 68 127.5 c 128,-1,21
 65 153 65 153 64.5 167 c 128,-1,22
 64 181 64 181 64 207 c 2,23,-1
 64 448 l 1,24,-1
 128 448 l 1,25,-1
 128 213 l 2,0,1
EndSplineSet
Validated: 19457
EndChar

StartChar: x
Encoding: 120 120 25
Width: 448
VWidth: 0
Flags: W
HStem: 0 21G<54 139.163 308.837 394> 428 20G<44 129.648 318.352 404>
LayerCount: 2
Fore
SplineSet
184 224 m 1,0,-1
 44 448 l 1,1,-1
 118 448 l 1,2,-1
 224 266 l 1,3,-1
 330 448 l 1,4,-1
 404 448 l 1,5,-1
 264 224 l 1,6,-1
 394 0 l 1,7,-1
 320 0 l 1,8,-1
 224 172 l 1,9,-1
 128 0 l 1,10,-1
 54 0 l 1,11,-1
 184 224 l 1,0,-1
EndSplineSet
Validated: 19457
EndChar

StartChar: z
Encoding: 122 122 26
Width: 448
VWidth: 1024
Flags: W
HStem: 0 64<128 384> 384 64<64 320>
VStem: 64 64<64 90> 320 64<358 384>
LayerCount: 2
Fore
SplineSet
64 0 m 1,0,-1
 64 112 l 1,1,-1
 320 358 l 1,2,-1
 320 384 l 1,3,-1
 64 384 l 1,4,-1
 64 448 l 1,5,-1
 384 448 l 1,6,-1
 384 336 l 1,7,-1
 128 90 l 1,8,-1
 128 64 l 1,9,-1
 384 64 l 1,10,-1
 384 0 l 1,11,-1
 64 0 l 1,0,-1
EndSplineSet
Validated: 19457
EndChar

StartChar: N
Encoding: 78 78 27
Width: 512
VWidth: 1024
Flags: W
HStem: 0 21G<64 128 372.468 448> 556 20G<64 139.532 384 448>
VStem: 64 64<0 444> 384 64<132 576>
LayerCount: 2
Fore
SplineSet
64 0 m 1,0,-1
 64 576 l 1,1,-1
 128 576 l 1,2,-1
 384 132 l 1,3,-1
 384 576 l 1,4,-1
 448 576 l 1,5,-1
 448 0 l 1,6,-1
 384 0 l 1,7,-1
 128 444 l 1,8,-1
 128 0 l 1,9,-1
 64 0 l 1,0,-1
EndSplineSet
Validated: 19457
EndChar

StartChar: A
Encoding: 65 65 28
Width: 512
VWidth: 0
Flags: W
HStem: 0 21G<64 128 384 448> 191 65<128 384> 512 64<157.463 354.537>
VStem: 64 64<0 191 256 483.7> 384 64<0 191 256 483.7>
AnchorPoint: "top" 257 576 basechar 0
LayerCount: 2
Fore
SplineSet
225 576 m 2,0,-1
 287 576 l 2,1,2
 320 576 320 576 346.5 568.5 c 128,-1,3
 373 561 373 561 389.5 551 c 128,-1,4
 406 541 406 541 418 522 c 128,-1,5
 430 503 430 503 435.5 488.5 c 128,-1,6
 441 474 441 474 444 448.5 c 128,-1,7
 447 423 447 423 447.5 409 c 128,-1,8
 448 395 448 395 448 369 c 2,9,-1
 448 0 l 1,10,-1
 384 0 l 1,11,-1
 384 191 l 1,12,-1
 128 191 l 1,13,-1
 128 0 l 1,14,-1
 64 0 l 1,15,-1
 64 369 l 2,16,17
 64 395 64 395 64.5 409 c 128,-1,18
 65 423 65 423 68 448.5 c 128,-1,19
 71 474 71 474 76.5 488.5 c 128,-1,20
 82 503 82 503 94 522 c 128,-1,21
 106 541 106 541 122.5 551 c 128,-1,22
 139 561 139 561 165.5 568.5 c 128,-1,23
 192 576 192 576 225 576 c 2,0,-1
284 512 m 2,24,-1
 228 512 l 2,25,26
 199 512 199 512 179.5 503.5 c 128,-1,27
 160 495 160 495 149.5 484.5 c 128,-1,28
 139 474 139 474 134 451 c 128,-1,29
 129 428 129 428 128.5 412 c 128,-1,30
 128 396 128 396 128 363 c 2,31,-1
 128 256 l 1,32,-1
 384 256 l 1,33,-1
 384 363 l 2,34,35
 384 396 384 396 383.5 412 c 128,-1,36
 383 428 383 428 378 451 c 128,-1,37
 373 474 373 474 362.5 484.5 c 128,-1,38
 352 495 352 495 332.5 503.5 c 128,-1,39
 313 512 313 512 284 512 c 2,24,-1
EndSplineSet
Validated: 19457
EndChar

StartChar: B
Encoding: 66 66 29
Width: 512
VWidth: 0
Flags: W
HStem: 0 64<128 354.67> 259 65<128 355.192> 512 64<128 355.219>
VStem: 64 64<64 259 324 512> 384 64<93.4158 229.562 353.932 483.17>
LayerCount: 2
Fore
SplineSet
128 259 m 5,0,-1
 128 64 l 1,1,-1
 288 64 l 2,2,3
 318 64 318 64 338.5 74 c 128,-1,4
 359 84 359 84 368 101 c 128,-1,5
 377 118 377 118 380.5 132 c 128,-1,6
 384 146 384 146 384 162.5 c 128,-1,7
 384 179 384 179 380.5 193 c 132,-1,8
 377 207 377 207 368 223 c 132,-1,9
 359 239 359 239 338.5 249 c 132,-1,10
 318 259 318 259 288 259 c 6,11,-1
 128 259 l 5,0,-1
396 292 m 5,12,13
 448 250 448 250 448 160 c 0,14,15
 448 142 448 142 445.5 124 c 128,-1,16
 443 106 443 106 433 82.5 c 128,-1,17
 423 59 423 59 406.5 41.5 c 128,-1,18
 390 24 390 24 359.5 12 c 128,-1,19
 329 0 329 0 288 0 c 2,20,-1
 64 0 l 1,21,-1
 64 576 l 1,22,-1
 288 576 l 2,23,24
 339 576 339 576 373.5 559 c 128,-1,25
 408 542 408 542 422.5 514 c 128,-1,26
 437 486 437 486 442.5 463 c 128,-1,27
 448 440 448 440 448 416 c 0,28,29
 448 334 448 334 396 292 c 5,12,13
288 324 m 6,30,31
 318 324 318 324 338.5 334 c 132,-1,32
 359 344 359 344 368 361 c 132,-1,33
 377 378 377 378 380.5 392 c 132,-1,34
 384 406 384 406 384 419 c 128,-1,35
 384 432 384 432 380.5 446 c 128,-1,36
 377 460 377 460 368 476 c 128,-1,37
 359 492 359 492 338.5 502 c 128,-1,38
 318 512 318 512 288 512 c 2,39,-1
 128 512 l 1,40,-1
 128 324 l 5,41,-1
 288 324 l 6,30,31
EndSplineSet
Validated: 19457
EndChar

StartChar: C
Encoding: 67 67 30
Width: 512
VWidth: 0
Flags: W
HStem: -6 67<159.426 363.881> 448 21G<383 448> 515 65<159.42 362.912>
VStem: 64 64<90.9062 484.996> 384 64<74.4131 128 448 501.587>
AnchorPoint: "bottom" 257 0 basechar 0
LayerCount: 2
Fore
SplineSet
288 -6 m 9,0,1
 224 -6 l 17,2,3
 191 -6 191 -6 165 4 c 129,-1,4
 139 14 139 14 122.5 24.5 c 129,-1,5
 106 35 106 35 94.5 53.5 c 129,-1,6
 83 72 83 72 77 87 c 129,-1,7
 71 102 71 102 68 127 c 129,-1,8
 65 152 65 152 64.5 166.5 c 129,-1,9
 64 181 64 181 64 207 c 9,10,-1
 64 369 l 17,11,12
 64 395 64 395 64 410 c 1,13,14
 65 423 65 423 68 448 c 129,-1,15
 71 473 71 473 77 488.5 c 129,-1,16
 83 504 83 504 94.5 522.5 c 129,-1,17
 106 541 106 541 122 552 c 1,18,19
 139 562 139 562 165 571 c 129,-1,20
 191 580 191 580 224 580 c 9,21,-1
 288 580 l 21,22,23
 326 580 326 580 352 576 c 5,24,25
 377 572 377 572 400 558 c 5,26,27
 424 545 424 545 435.5 517.5 c 133,-1,28
 447 490 447 490 448 448 c 5,29,-1
 384 448 l 5,30,31
 382 489 382 489 363.5 502 c 133,-1,32
 345 515 345 515 288 515 c 13,33,-1
 224 515 l 17,34,35
 196 515 196 515 177 505 c 129,-1,36
 158 495 158 495 148.5 484.5 c 129,-1,37
 139 474 139 474 134 451 c 129,-1,38
 129 428 129 428 128.5 412 c 129,-1,39
 128 396 128 396 128 363 c 9,40,-1
 128 213 l 17,41,42
 128 180 128 180 128 164 c 129,-1,43
 128 148 128 148 134 125 c 1,44,45
 139 102 139 102 148.5 91.5 c 129,-1,46
 158 81 158 81 177 71 c 129,-1,47
 196 61 196 61 224 61 c 9,48,-1
 288 61 l 17,49,50
 345 61 345 61 364.5 74 c 129,-1,51
 384 87 384 87 384 128 c 1,52,-1
 448 128 l 1,53,54
 448 86 448 86 436 58.5 c 129,-1,55
 424 31 424 31 400 18 c 1,56,57
 377 6 377 6 352 -0 c 1,58,59
 326 -6 326 -6 288 -6 c 9,0,1
EndSplineSet
Validated: 3073
EndChar

StartChar: M
Encoding: 77 77 31
Width: 576
VWidth: 1024
Flags: W
HStem: 0 21G<64 128 448 512> 556 20G<64 140.595 435.405 512>
VStem: 64 64<0 454> 448 64<0 454>
LayerCount: 2
Fore
SplineSet
64 0 m 5,0,-1
 64 576 l 1,1,-1
 126 576 l 1,2,-1
 288 354 l 1,3,-1
 450 576 l 1,4,-1
 512 576 l 1,5,-1
 512 0 l 1,6,-1
 448 0 l 1,7,-1
 448 454 l 1,8,-1
 288 244 l 1,9,-1
 128 454 l 1,10,-1
 128 0 l 1,11,-1
 64 0 l 5,0,-1
EndSplineSet
Validated: 19457
EndChar

StartChar: D
Encoding: 68 68 32
Width: 512
VWidth: 0
Flags: W
HStem: 0 64<128 356.243> 512 64<128 265.473>
VStem: 64 64<64 512> 384 64<90.9062 364.849>
LayerCount: 2
Fore
SplineSet
288 64 m 2,0,1
 316 64 316 64 335 72.5 c 128,-1,2
 354 81 354 81 363.5 91.5 c 128,-1,3
 373 102 373 102 378 125 c 128,-1,4
 383 148 383 148 383.5 164 c 128,-1,5
 384 180 384 180 384 213 c 2,6,-1
 384 243 l 2,7,8
 384 356 384 356 327 434 c 128,-1,9
 270 512 270 512 196 512 c 2,10,-1
 128 512 l 1,11,-1
 128 64 l 1,12,-1
 288 64 l 2,0,1
64 576 m 1,13,-1
 196 576 l 2,14,15
 309 576 309 576 378.5 477 c 128,-1,16
 448 378 448 378 448 249 c 2,17,-1
 448 207 l 2,18,19
 448 181 448 181 447.5 166.5 c 128,-1,20
 447 152 447 152 444 127 c 128,-1,21
 441 102 441 102 435 87 c 128,-1,22
 429 72 429 72 417.5 53.5 c 128,-1,23
 406 35 406 35 389.5 24.5 c 128,-1,24
 373 14 373 14 347 7 c 128,-1,25
 321 0 321 0 288 0 c 2,26,-1
 64 0 l 1,27,-1
 64 576 l 1,13,-1
EndSplineSet
Validated: 19457
EndChar

StartChar: E
Encoding: 69 69 33
Width: 512
VWidth: 1024
Flags: W
HStem: 0 64<128 448> 259 65<128 384> 512 64<128 448>
VStem: 64 64<64 259 324 512>
AnchorPoint: "top" 257 576 basechar 0
LayerCount: 2
Fore
SplineSet
64 0 m 1,0,-1
 64 576 l 1,1,-1
 448 576 l 1,2,-1
 448 512 l 1,3,-1
 128 512 l 1,4,-1
 128 324 l 5,5,-1
 384 324 l 5,6,-1
 384 259 l 5,7,-1
 128 259 l 5,8,-1
 128 64 l 1,9,-1
 448 64 l 1,10,-1
 448 0 l 1,11,-1
 64 0 l 1,0,-1
EndSplineSet
Validated: 19457
EndChar

StartChar: F
Encoding: 70 70 34
Width: 512
VWidth: 1024
Flags: W
HStem: 0 21G<64 128> 255 65<128 384> 512 64<128 448>
VStem: 64 64<0 255 320 512>
LayerCount: 2
Fore
SplineSet
64 0 m 1,0,-1
 64 576 l 1,1,-1
 448 576 l 1,2,-1
 448 512 l 1,3,-1
 128 512 l 1,4,-1
 128 320 l 1,5,-1
 384 320 l 1,6,-1
 384 255 l 1,7,-1
 128 255 l 1,8,-1
 128 0 l 1,9,-1
 64 0 l 1,0,-1
EndSplineSet
Validated: 19457
EndChar

StartChar: P
Encoding: 80 80 35
Width: 512
VWidth: 0
Flags: W
HStem: 0 21G<64 128> 255 65<128 354.67> 512 64<128 354.938>
VStem: 64 64<0 255 320 512> 384 64<349.596 483.17>
LayerCount: 2
Fore
SplineSet
288 320 m 6,0,1
 318 320 318 320 338.5 330 c 128,-1,2
 359 340 359 340 368 357 c 128,-1,3
 377 374 377 374 380.5 388 c 128,-1,4
 384 402 384 402 384 417 c 128,-1,5
 384 432 384 432 380.5 446 c 128,-1,6
 377 460 377 460 368 476 c 128,-1,7
 359 492 359 492 338.5 502 c 128,-1,8
 318 512 318 512 288 512 c 2,9,-1
 128 512 l 1,10,-1
 128 320 l 1,11,-1
 288 320 l 6,0,1
128 255 m 5,12,-1
 128 0 l 1,13,-1
 64 0 l 1,14,-1
 64 576 l 1,15,-1
 288 576 l 2,16,17
 339 576 339 576 373 559 c 128,-1,18
 407 542 407 542 422 514 c 128,-1,19
 437 486 437 486 442.5 463.5 c 0,20,21
 448 442 448 442 448 416 c 0,22,23
 448 397 448 397 445 379 c 128,-1,24
 442 361 442 361 432.5 337.5 c 128,-1,25
 423 314 423 314 406.5 296.5 c 128,-1,26
 390 279 390 279 359.5 267 c 128,-1,27
 329 255 329 255 288 255 c 2,28,-1
 128 255 l 5,12,-1
EndSplineSet
Validated: 19457
EndChar

StartChar: G
Encoding: 71 71 36
Width: 512
VWidth: 0
Flags: W
HStem: 0 64<155.757 384> 255 65<256 384> 512 64<155.757 448>
VStem: 64 64<90.9062 485.094> 384 64<64 255>
AnchorPoint: "top" 256 576 basechar 0
LayerCount: 2
Fore
SplineSet
448 576 m 1,0,-1
 448 512 l 1,1,-1
 224 512 l 2,2,3
 196 512 196 512 177 503.5 c 128,-1,4
 158 495 158 495 148.5 484.5 c 128,-1,5
 139 474 139 474 134 451 c 128,-1,6
 129 428 129 428 128.5 412 c 128,-1,7
 128 396 128 396 128 363 c 2,8,-1
 128 213 l 2,9,10
 128 180 128 180 128.5 164 c 128,-1,11
 129 148 129 148 134 125 c 128,-1,12
 139 102 139 102 148.5 91.5 c 128,-1,13
 158 81 158 81 177 72.5 c 128,-1,14
 196 64 196 64 224 64 c 2,15,-1
 384 64 l 1,16,-1
 384 255 l 1,17,-1
 256 255 l 1,18,-1
 256 320 l 1,19,-1
 448 320 l 1,20,-1
 448 0 l 1,21,-1
 224 0 l 2,22,23
 191 0 191 0 165 7 c 128,-1,24
 139 14 139 14 122.5 24.5 c 128,-1,25
 106 35 106 35 94.5 53.5 c 128,-1,26
 83 72 83 72 77 87 c 128,-1,27
 71 102 71 102 68 127 c 128,-1,28
 65 152 65 152 64.5 166.5 c 128,-1,29
 64 181 64 181 64 207 c 2,30,-1
 64 369 l 2,31,32
 64 395 64 395 64.5 409.5 c 128,-1,33
 65 424 65 424 68 449 c 128,-1,34
 71 474 71 474 77 489 c 128,-1,35
 83 504 83 504 94.5 522.5 c 128,-1,36
 106 541 106 541 122.5 551.5 c 128,-1,37
 139 562 139 562 165 569 c 128,-1,38
 191 576 191 576 224 576 c 2,39,-1
 448 576 l 1,0,-1
EndSplineSet
Validated: 19457
EndChar

StartChar: H
Encoding: 72 72 37
Width: 512
VWidth: 1024
Flags: W
HStem: 0 21G<64 128 384 448> 255 65<128 384> 556 20G<64 128 384 448>
VStem: 64 64<0 255 320 576> 384 64<0 255 320 576>
LayerCount: 2
Fore
SplineSet
64 0 m 1,0,-1
 64 576 l 1,1,-1
 128 576 l 1,2,-1
 128 320 l 1,3,-1
 384 320 l 1,4,-1
 384 576 l 1,5,-1
 448 576 l 1,6,-1
 448 0 l 1,7,-1
 384 0 l 1,8,-1
 384 255 l 1,9,-1
 128 255 l 1,10,-1
 128 0 l 1,11,-1
 64 0 l 1,0,-1
EndSplineSet
Validated: 19457
EndChar

StartChar: I
Encoding: 73 73 38
Width: 448
VWidth: 1024
Flags: W
HStem: 0 64<64 192 256 384> 512 64<64 192 256 384>
VStem: 192 64<64 512>
AnchorPoint: "top" 225 576 basechar 0
LayerCount: 2
Fore
SplineSet
64 0 m 1,0,-1
 64 64 l 1,1,-1
 192 64 l 1,2,-1
 192 512 l 1,3,-1
 64 512 l 1,4,-1
 64 576 l 1,5,-1
 384 576 l 1,6,-1
 384 512 l 1,7,-1
 256 512 l 1,8,-1
 256 64 l 1,9,-1
 384 64 l 1,10,-1
 384 0 l 1,11,-1
 64 0 l 1,0,-1
EndSplineSet
Validated: 19457
EndChar

StartChar: J
Encoding: 74 74 39
Width: 512
VWidth: 0
Flags: W
HStem: 0 64<155.757 356.243> 556 20G<384 448>
VStem: 64 64<90.9062 256> 384 64<90.9062 576>
LayerCount: 2
Fore
SplineSet
128 256 m 5,0,-1
 128 213 l 2,1,2
 128 180 128 180 128.5 164 c 128,-1,3
 129 148 129 148 134 125 c 128,-1,4
 139 102 139 102 148.5 91.5 c 128,-1,5
 158 81 158 81 177 72.5 c 128,-1,6
 196 64 196 64 224 64 c 2,7,-1
 288 64 l 2,8,9
 316 64 316 64 335 72.5 c 128,-1,10
 354 81 354 81 363.5 91.5 c 128,-1,11
 373 102 373 102 378 125 c 128,-1,12
 383 148 383 148 383.5 164 c 128,-1,13
 384 180 384 180 384 213 c 2,14,-1
 384 576 l 1,15,-1
 448 576 l 1,16,-1
 448 207 l 2,17,18
 448 181 448 181 447.5 166.5 c 128,-1,19
 447 152 447 152 444 127 c 128,-1,20
 441 102 441 102 435 87 c 128,-1,21
 429 72 429 72 417.5 53.5 c 128,-1,22
 406 35 406 35 389.5 24.5 c 128,-1,23
 373 14 373 14 347 7 c 128,-1,24
 321 0 321 0 288 0 c 2,25,-1
 224 0 l 2,26,27
 191 0 191 0 165 7 c 128,-1,28
 139 14 139 14 122.5 24.5 c 128,-1,29
 106 35 106 35 94.5 53.5 c 128,-1,30
 83 72 83 72 77 87 c 128,-1,31
 71 102 71 102 68 127 c 128,-1,32
 65 152 65 152 64.5 166.5 c 128,-1,33
 64 181 64 181 64 207 c 2,34,-1
 64 256 l 1,35,-1
 128 256 l 5,0,-1
EndSplineSet
Validated: 19457
EndChar

StartChar: K
Encoding: 75 75 40
Width: 512
VWidth: 0
Flags: W
HStem: 0 21G<64 128 384 448> 255 65<128 297.026> 556 20G<64 128 384 448>
VStem: 64 64<0 255 320 576> 384 64<0 160.421 414.981 576>
LayerCount: 2
Fore
SplineSet
128 255 m 1,0,-1
 128 0 l 1,1,-1
 64 0 l 1,2,-1
 64 576 l 1,3,-1
 128 576 l 1,4,-1
 128 320 l 1,5,-1
 226 320 l 2,6,7
 289 320 289 320 336.5 373.5 c 128,-1,8
 384 427 384 427 384 512 c 2,9,-1
 384 576 l 1,10,-1
 448 576 l 1,11,-1
 448 512 l 2,12,13
 448 414 448 414 401.5 350 c 128,-1,14
 355 286 355 286 320 286 c 1,15,16
 355 286 355 286 401.5 224 c 128,-1,17
 448 162 448 162 448 64 c 2,18,-1
 448 0 l 1,19,-1
 384 0 l 1,20,-1
 384 64 l 2,21,22
 384 148 384 148 336 201.5 c 128,-1,23
 288 255 288 255 226 255 c 2,24,-1
 128 255 l 1,0,-1
EndSplineSet
Validated: 19457
EndChar

StartChar: L
Encoding: 76 76 41
Width: 512
VWidth: 1024
Flags: W
HStem: 0 64<128 448> 556 20G<64 128>
VStem: 64 64<64 576>
LayerCount: 2
Fore
SplineSet
64 0 m 1,0,-1
 64 576 l 1,1,-1
 128 576 l 1,2,-1
 128 64 l 1,3,-1
 448 64 l 1,4,-1
 448 0 l 1,5,-1
 64 0 l 1,0,-1
EndSplineSet
Validated: 19457
EndChar

StartChar: O
Encoding: 79 79 42
Width: 512
VWidth: 0
Flags: W
HStem: -4 65<192.72 323.147> 518 65<192.72 323.147>
VStem: 64 64<138.341 440.659> 384 64<138.773 440.227>
AnchorPoint: "top" 256 576 basechar 0
AnchorPoint: "bottom" 256 -1 basechar 0
LayerCount: 2
Fore
SplineSet
384 251 m 2,0,-1
 384 328 l 2,1,2
 384 406 384 406 353 462 c 128,-1,3
 322 518 322 518 256 518 c 0,4,5
 211 518 211 518 181 487 c 128,-1,6
 151 456 151 456 139.5 415 c 128,-1,7
 128 374 128 374 128 328 c 2,8,-1
 128 251 l 2,9,10
 128 205 128 205 139.5 164 c 128,-1,11
 151 123 151 123 181 92 c 128,-1,12
 211 61 211 61 256 61 c 0,13,14
 322 61 322 61 353 117 c 128,-1,15
 384 173 384 173 384 251 c 2,0,-1
448 338 m 2,16,-1
 448 241 l 2,17,18
 448 211 448 211 443.5 181 c 128,-1,19
 439 151 439 151 426 116.5 c 128,-1,20
 413 82 413 82 392.5 56 c 128,-1,21
 372 30 372 30 336.5 13 c 128,-1,22
 301 -4 301 -4 256 -4 c 128,-1,23
 211 -4 211 -4 175.5 13.5 c 128,-1,24
 140 31 140 31 119.5 57 c 128,-1,25
 99 83 99 83 86 118 c 128,-1,26
 73 153 73 153 68.5 183 c 128,-1,27
 64 213 64 213 64 244 c 2,28,-1
 64 335 l 2,29,30
 64 366 64 366 68.5 396 c 128,-1,31
 73 426 73 426 86 461 c 128,-1,32
 99 496 99 496 119.5 522 c 128,-1,33
 140 548 140 548 175.5 565.5 c 128,-1,34
 211 583 211 583 256 583 c 128,-1,35
 301 583 301 583 336.5 566 c 128,-1,36
 372 549 372 549 392.5 523 c 128,-1,37
 413 497 413 497 426 462.5 c 128,-1,38
 439 428 439 428 443.5 398 c 128,-1,39
 448 368 448 368 448 338 c 2,16,-1
EndSplineSet
Validated: 19457
EndChar

StartChar: zero
Encoding: 48 48 43
Width: 512
VWidth: 0
Flags: W
HStem: -6 65<157.107 354.893> 516 65<157.107 354.893>
VStem: 64 64<87.5312 487.469> 384 64<87.5312 487.469>
LayerCount: 2
Fore
SplineSet
288 -6 m 2,0,-1
 224 -6 l 2,1,2
 191 -6 191 -6 165 1.5 c 128,-1,3
 139 9 139 9 122.5 19.5 c 128,-1,4
 106 30 106 30 94.5 49 c 128,-1,5
 83 68 83 68 77 83.5 c 128,-1,6
 71 99 71 99 68 124.5 c 128,-1,7
 65 150 65 150 64.5 165 c 128,-1,8
 64 180 64 180 64 206 c 2,9,-1
 64 369 l 2,10,11
 64 395 64 395 64.5 410 c 128,-1,12
 65 425 65 425 68 450.5 c 128,-1,13
 71 476 71 476 77 491.5 c 128,-1,14
 83 507 83 507 94.5 526 c 128,-1,15
 106 545 106 545 122.5 555.5 c 128,-1,16
 139 566 139 566 165 573.5 c 128,-1,17
 191 581 191 581 224 581 c 2,18,-1
 288 581 l 2,19,20
 321 581 321 581 347 573.5 c 128,-1,21
 373 566 373 566 389.5 555.5 c 128,-1,22
 406 545 406 545 417.5 526 c 128,-1,23
 429 507 429 507 435 491.5 c 128,-1,24
 441 476 441 476 444 450.5 c 128,-1,25
 447 425 447 425 447.5 410 c 128,-1,26
 448 395 448 395 448 369 c 2,27,-1
 448 206 l 2,28,29
 448 180 448 180 447.5 165 c 128,-1,30
 447 150 447 150 444 124.5 c 128,-1,31
 441 99 441 99 435 83.5 c 128,-1,32
 429 68 429 68 417.5 49 c 128,-1,33
 406 30 406 30 389.5 19.5 c 128,-1,34
 373 9 373 9 347 1.5 c 128,-1,35
 321 -6 321 -6 288 -6 c 2,0,-1
224 59 m 2,36,-1
 288 59 l 2,37,38
 316 59 316 59 335 68 c 128,-1,39
 354 77 354 77 363.5 88 c 128,-1,40
 373 99 373 99 378 123.5 c 128,-1,41
 383 148 383 148 383.5 164 c 128,-1,42
 384 180 384 180 384 213 c 2,43,-1
 384 362 l 2,44,45
 384 395 384 395 383.5 411 c 128,-1,46
 383 427 383 427 378 451.5 c 128,-1,47
 373 476 373 476 363.5 487 c 128,-1,48
 354 498 354 498 335 507 c 128,-1,49
 316 516 316 516 288 516 c 2,50,-1
 224 516 l 2,51,52
 196 516 196 516 177 507 c 128,-1,53
 158 498 158 498 148.5 487 c 128,-1,54
 139 476 139 476 134 451.5 c 128,-1,55
 129 427 129 427 128.5 411 c 128,-1,56
 128 395 128 395 128 362 c 2,57,-1
 128 213 l 2,58,59
 128 180 128 180 128.5 164 c 128,-1,60
 129 148 129 148 134 123.5 c 128,-1,61
 139 99 139 99 148.5 88 c 128,-1,62
 158 77 158 77 177 68 c 128,-1,63
 196 59 196 59 224 59 c 2,36,-1
EndSplineSet
Validated: 19457
EndChar

StartChar: Q
Encoding: 81 81 44
Width: 512
VWidth: 0
Flags: W
HStem: 0 64<155.671 291.264> 512 64<155.757 356.243>
VStem: 64 64<90.9062 485.094> 384 64<172.949 485.094>
LayerCount: 2
Fore
SplineSet
384 271 m 2,0,-1
 384 363 l 2,1,2
 384 396 384 396 383.5 412 c 128,-1,3
 383 428 383 428 378 451 c 128,-1,4
 373 474 373 474 363.5 484.5 c 128,-1,5
 354 495 354 495 335 503.5 c 128,-1,6
 316 512 316 512 288 512 c 2,7,-1
 224 512 l 2,8,9
 196 512 196 512 177 503.5 c 128,-1,10
 158 495 158 495 148.5 484.5 c 128,-1,11
 139 474 139 474 134 451 c 128,-1,12
 129 428 129 428 128.5 412 c 128,-1,13
 128 396 128 396 128 363 c 2,14,-1
 128 213 l 2,15,16
 128 180 128 180 128.5 164 c 128,-1,17
 129 148 129 148 134 125 c 128,-1,18
 139 102 139 102 148.5 91.5 c 128,-1,19
 158 81 158 81 177 72.5 c 128,-1,20
 196 64 196 64 224 64 c 0,21,22
 274 64 274 64 316 104 c 1,23,-1
 212 212 l 1,24,-1
 256 256 l 1,25,-1
 354 153 l 1,26,27
 384 207 384 207 384 271 c 2,0,-1
458 44 m 1,28,-1
 415 0 l 1,29,-1
 361 57 l 1,30,31
 302 0 302 0 224 0 c 0,32,33
 191 0 191 0 165 7 c 128,-1,34
 139 14 139 14 122.5 24.5 c 128,-1,35
 106 35 106 35 94.5 53.5 c 128,-1,36
 83 72 83 72 77 87 c 128,-1,37
 71 102 71 102 68 127 c 128,-1,38
 65 152 65 152 64.5 166.5 c 128,-1,39
 64 181 64 181 64 207 c 2,40,-1
 64 369 l 2,41,42
 64 395 64 395 64.5 409.5 c 128,-1,43
 65 424 65 424 68 449 c 128,-1,44
 71 474 71 474 77 489 c 128,-1,45
 83 504 83 504 94.5 522.5 c 128,-1,46
 106 541 106 541 122.5 551.5 c 128,-1,47
 139 562 139 562 165 569 c 128,-1,48
 191 576 191 576 224 576 c 2,49,-1
 288 576 l 2,50,51
 321 576 321 576 347 569 c 128,-1,52
 373 562 373 562 389.5 551.5 c 128,-1,53
 406 541 406 541 417.5 522.5 c 128,-1,54
 429 504 429 504 435 489 c 128,-1,55
 441 474 441 474 444 449 c 128,-1,56
 447 424 447 424 447.5 409.5 c 128,-1,57
 448 395 448 395 448 369 c 2,58,-1
 448 262 l 2,59,60
 448 182 448 182 400 105 c 1,61,-1
 458 44 l 1,28,-1
EndSplineSet
Validated: 19457
EndChar

StartChar: R
Encoding: 82 82 45
Width: 512
VWidth: 0
Flags: W
HStem: 0 21G<64 128 384 448> 255 65<128 298.031> 512 64<128 354.938>
VStem: 64 64<0 255 320 512> 384 64<0 160.75 349.416 483.17>
LayerCount: 2
Fore
SplineSet
128 255 m 1,0,-1
 128 0 l 1,1,-1
 64 0 l 1,2,-1
 64 576 l 1,3,-1
 288 576 l 2,4,5
 339 576 339 576 373 559 c 128,-1,6
 407 542 407 542 422 514 c 128,-1,7
 437 486 437 486 442.5 463.5 c 128,-1,8
 448 441 448 441 448 416 c 0,9,10
 445 301 445 301 361 267 c 1,11,12
 396 240 396 240 422 188 c 128,-1,13
 448 136 448 136 448 64 c 2,14,-1
 448 0 l 1,15,-1
 384 0 l 1,16,-1
 384 64 l 2,17,18
 384 148 384 148 336 201.5 c 128,-1,19
 288 255 288 255 226 255 c 2,20,-1
 128 255 l 1,0,-1
288 320 m 2,21,22
 318 320 318 320 338.5 330 c 128,-1,23
 359 340 359 340 368 357 c 128,-1,24
 377 374 377 374 380.5 388 c 128,-1,25
 384 402 384 402 384 417 c 128,-1,26
 384 432 384 432 380.5 446 c 128,-1,27
 377 460 377 460 368 476 c 128,-1,28
 359 492 359 492 338.5 502 c 128,-1,29
 318 512 318 512 288 512 c 2,30,-1
 128 512 l 1,31,-1
 128 320 l 1,32,-1
 288 320 l 2,21,22
EndSplineSet
Validated: 19457
EndChar

StartChar: S
Encoding: 83 83 46
Width: 512
VWidth: 0
Flags: W
HStem: -5 64<155.918 355.42> 320 64<145.801 357.078> 512 64<145.801 416>
VStem: 64 64<88.2491 192 401.989 493.049> 384 64<88.5225 292.056>
AnchorPoint: "top" 256 576 basechar 0
LayerCount: 2
Fore
SplineSet
221 512 m 2,0,1
 128 512 128 512 128 448 c 128,-1,2
 128 384 128 384 221 384 c 2,3,-1
 287 384 l 2,4,5
 330 384 330 384 361 372 c 128,-1,6
 392 360 392 360 408.5 342.5 c 128,-1,7
 425 325 425 325 434.5 297 c 128,-1,8
 444 269 444 269 446 246.5 c 128,-1,9
 448 224 448 224 448 192 c 128,-1,10
 448 160 448 160 446 137 c 128,-1,11
 444 114 444 114 434.5 85 c 128,-1,12
 425 56 425 56 408.5 38 c 128,-1,13
 392 20 392 20 361 7.5 c 128,-1,14
 330 -5 330 -5 287 -5 c 2,15,-1
 224 -5 l 2,16,17
 181 -5 181 -5 150 8 c 128,-1,18
 119 21 119 21 103 38.5 c 128,-1,19
 87 56 87 56 78 85.5 c 128,-1,20
 69 115 69 115 66.5 137 c 128,-1,21
 64 159 64 159 64 192 c 1,22,-1
 128 192 l 1,23,24
 128 159 128 159 131 139 c 128,-1,25
 134 119 134 119 143 98.5 c 128,-1,26
 152 78 152 78 172 68.5 c 128,-1,27
 192 59 192 59 224 59 c 2,28,-1
 287 59 l 2,29,30
 347 59 347 59 365.5 92.5 c 128,-1,31
 384 126 384 126 384 192 c 0,32,33
 384 257 384 257 365.5 288.5 c 128,-1,34
 347 320 347 320 287 320 c 2,35,-1
 221 320 l 2,36,37
 64 320 64 320 64 449 c 0,38,39
 64 576 64 576 221 576 c 2,40,-1
 416 576 l 1,41,-1
 416 512 l 1,42,-1
 221 512 l 2,0,1
EndSplineSet
Validated: 19457
EndChar

StartChar: T
Encoding: 84 84 47
Width: 576
VWidth: 1024
Flags: W
HStem: 0 21G<256 320> 512 64<64 256 320 512>
VStem: 256 64<0 512>
LayerCount: 2
Fore
SplineSet
256 0 m 1,0,-1
 256 512 l 1,1,-1
 64 512 l 1,2,-1
 64 576 l 1,3,-1
 512 576 l 1,4,-1
 512 512 l 1,5,-1
 320 512 l 1,6,-1
 320 0 l 1,7,-1
 256 0 l 1,0,-1
EndSplineSet
Validated: 19457
EndChar

StartChar: U
Encoding: 85 85 48
Width: 512
VWidth: 0
Flags: W
HStem: 0 64<155.757 356.243> 556 20G<64 128 384 448>
VStem: 64 64<90.9062 576> 384 64<90.9062 576>
AnchorPoint: "top" 256 576 basechar 0
LayerCount: 2
Fore
SplineSet
448 207 m 2,0,1
 448 181 448 181 447.5 166.5 c 128,-1,2
 447 152 447 152 444 127 c 128,-1,3
 441 102 441 102 435 87 c 128,-1,4
 429 72 429 72 417.5 53.5 c 128,-1,5
 406 35 406 35 389.5 24.5 c 128,-1,6
 373 14 373 14 347 7 c 128,-1,7
 321 0 321 0 288 0 c 2,8,-1
 224 0 l 2,9,10
 191 0 191 0 165 7 c 128,-1,11
 139 14 139 14 122.5 24.5 c 128,-1,12
 106 35 106 35 94.5 53.5 c 128,-1,13
 83 72 83 72 77 87 c 128,-1,14
 71 102 71 102 68 127 c 128,-1,15
 65 152 65 152 64.5 166.5 c 128,-1,16
 64 181 64 181 64 207 c 2,17,-1
 64 576 l 1,18,-1
 128 576 l 1,19,-1
 128 213 l 2,20,21
 128 180 128 180 128.5 164 c 128,-1,22
 129 148 129 148 134 125 c 128,-1,23
 139 102 139 102 148.5 91.5 c 128,-1,24
 158 81 158 81 177 72.5 c 128,-1,25
 196 64 196 64 224 64 c 2,26,-1
 288 64 l 2,27,28
 316 64 316 64 335 72.5 c 128,-1,29
 354 81 354 81 363.5 91.5 c 128,-1,30
 373 102 373 102 378 125 c 128,-1,31
 383 148 383 148 383.5 164 c 128,-1,32
 384 180 384 180 384 213 c 2,33,-1
 384 576 l 1,34,-1
 448 576 l 1,35,-1
 448 207 l 2,0,1
EndSplineSet
Validated: 19457
EndChar

StartChar: V
Encoding: 86 86 49
Width: 512
VWidth: 0
Flags: W
HStem: 0 21G<218.271 293.799> 556 20G<59 132.714 379.196 455>
LayerCount: 2
Fore
SplineSet
288 0 m 25,0,-1
 224 0 l 1,1,-1
 59 576 l 1,2,-1
 127 576 l 1,3,-1
 255 128 l 1,4,-1
 385 576 l 1,5,-1
 455 576 l 1,6,-1
 288 0 l 25,0,-1
EndSplineSet
Validated: 19457
EndChar

StartChar: Y
Encoding: 89 89 50
Width: 512
VWidth: 0
Flags: W
HStem: 0 21G<256 320> 556 20G<64 128 384 448>
VStem: 64 64<431.155 576> 256 64<0 256> 384 64<409.999 576>
AnchorPoint: "top" 256 576 basechar 0
LayerCount: 2
Fore
SplineSet
288 310 m 1,0,1
 292 313 292 313 298.5 318.5 c 128,-1,2
 305 324 305 324 321.5 342.5 c 128,-1,3
 338 361 338 361 350.5 383 c 128,-1,4
 363 405 363 405 373.5 439.5 c 128,-1,5
 384 474 384 474 384 512 c 2,6,-1
 384 576 l 1,7,-1
 448 576 l 1,8,-1
 448 512 l 2,9,10
 448 471 448 471 435 429 c 128,-1,11
 422 387 422 387 403 357.5 c 128,-1,12
 384 328 384 328 365 304 c 128,-1,13
 346 280 346 280 333 268 c 2,14,-1
 320 256 l 1,15,-1
 320 0 l 1,16,-1
 256 0 l 1,17,-1
 256 256 l 1,18,19
 248 260 248 260 235 268.5 c 128,-1,20
 222 277 222 277 189 303.5 c 128,-1,21
 156 330 156 330 131 358 c 128,-1,22
 106 386 106 386 85 428.5 c 128,-1,23
 64 471 64 471 64 512 c 2,24,-1
 64 576 l 1,25,-1
 128 576 l 1,26,-1
 128 512 l 2,27,28
 128 474 128 474 144.5 439.5 c 128,-1,29
 161 405 161 405 184.5 382.5 c 128,-1,30
 208 360 208 360 231.5 343 c 0,31,32
 256 326 256 326 272 318 c 2,33,-1
 288 310 l 1,0,1
EndSplineSet
Validated: 19457
EndChar

StartChar: eight
Encoding: 56 56 51
Width: 512
VWidth: 0
Flags: W
HStem: -6 65<159.874 352.126> 269 65<157.4 355.192> 516 65<158.311 353.689>
VStem: 64 64<90.693 238.417 364.328 485.092> 384 64<90.693 238.417 364.328 485.092>
LayerCount: 2
Fore
SplineSet
224 59 m 2,0,-1
 288 59 l 2,1,2
 317 59 317 59 338 70 c 128,-1,3
 359 81 359 81 368 98.5 c 128,-1,4
 377 116 377 116 380.5 131 c 128,-1,5
 384 146 384 146 384 167.5 c 128,-1,6
 384 189 384 189 380.5 203 c 132,-1,7
 377 217 377 217 368 233 c 132,-1,8
 359 249 359 249 338.5 259 c 132,-1,9
 318 269 318 269 288 269 c 6,10,-1
 224 269 l 6,11,12
 169 269 169 269 148.5 239 c 132,-1,13
 128 209 128 209 128 160 c 0,14,15
 128 145 128 145 131.5 130.5 c 128,-1,16
 135 116 135 116 144 98.5 c 128,-1,17
 153 81 153 81 174 70 c 128,-1,18
 195 59 195 59 224 59 c 2,0,-1
224 334 m 6,19,-1
 288 334 l 6,20,21
 318 334 318 334 338.5 344 c 132,-1,22
 359 354 359 354 368 371 c 132,-1,23
 377 388 377 388 380.5 402 c 132,-1,24
 384 416 384 416 384 423.5 c 128,-1,25
 384 431 384 431 380.5 445.5 c 128,-1,26
 377 460 377 460 368 477.5 c 128,-1,27
 359 495 359 495 338.5 505.5 c 128,-1,28
 318 516 318 516 288 516 c 2,29,-1
 224 516 l 2,30,31
 194 516 194 516 173.5 505.5 c 128,-1,32
 153 495 153 495 144 477.5 c 128,-1,33
 135 460 135 460 131.5 445.5 c 128,-1,34
 128 431 128 431 128 423.5 c 128,-1,35
 128 416 128 416 131.5 402 c 132,-1,36
 135 388 135 388 144 371 c 132,-1,37
 153 354 153 354 173.5 344 c 132,-1,38
 194 334 194 334 224 334 c 6,19,-1
288 -6 m 2,39,-1
 224 -6 l 2,40,41
 174 -6 174 -6 139 12 c 128,-1,42
 104 30 104 30 89.5 59 c 128,-1,43
 75 88 75 88 69.5 111.5 c 128,-1,44
 64 135 64 135 64 159 c 0,45,46
 64 260 64 260 116 302 c 5,47,48
 64 344 64 344 64 416 c 0,49,50
 64 435 64 435 66.5 453 c 128,-1,51
 69 471 69 471 79 495.5 c 128,-1,52
 89 520 89 520 105.5 538 c 128,-1,53
 122 556 122 556 152.5 568.5 c 128,-1,54
 183 581 183 581 224 581 c 2,55,-1
 288 581 l 2,56,57
 329 581 329 581 359.5 568.5 c 128,-1,58
 390 556 390 556 406.5 538 c 128,-1,59
 423 520 423 520 433 495.5 c 128,-1,60
 443 471 443 471 445.5 453 c 128,-1,61
 448 435 448 435 448 416 c 0,62,63
 448 344 448 344 396 302 c 5,64,65
 448 260 448 260 448 159 c 0,66,67
 448 135 448 135 442.5 111.5 c 128,-1,68
 437 88 437 88 422.5 59 c 128,-1,69
 408 30 408 30 373 12 c 128,-1,70
 338 -6 338 -6 288 -6 c 2,39,-1
EndSplineSet
Validated: 19457
EndChar

StartChar: period
Encoding: 46 46 52
Width: 256
VWidth: 1024
Flags: W
HStem: 0 128<64 192>
VStem: 64 128<0 128>
LayerCount: 2
Fore
SplineSet
64 0 m 1,0,-1
 64 128 l 1,1,-1
 192 128 l 1,2,-1
 192 0 l 1,3,-1
 64 0 l 1,0,-1
EndSplineSet
Validated: 19457
EndChar

StartChar: colon
Encoding: 58 58 53
Width: 256
VWidth: 1024
Flags: W
HStem: 63 129<64 192> 383 129<64 192>
VStem: 64 128<63 192 383 512>
LayerCount: 2
Fore
SplineSet
64 63 m 1,0,-1
 64 192 l 1,1,-1
 192 192 l 1,2,-1
 192 63 l 1,3,-1
 64 63 l 1,0,-1
64 383 m 1,4,-1
 64 512 l 5,5,-1
 192 512 l 1,6,-1
 192 383 l 1,7,-1
 64 383 l 1,4,-1
EndSplineSet
Validated: 19457
EndChar

StartChar: W
Encoding: 87 87 54
Width: 576
VWidth: 1024
Flags: W
HStem: 0 21G<64 140.595 435.405 512> 556 20G<64 128 448 512>
VStem: 64 64<122 576> 448 64<122 576>
LayerCount: 2
Fore
SplineSet
64 576 m 1,0,-1
 128 576 l 1,1,-1
 128 122 l 1,2,-1
 288 332 l 1,3,-1
 448 122 l 1,4,-1
 448 576 l 1,5,-1
 512 576 l 1,6,-1
 512 0 l 1,7,-1
 450 0 l 1,8,-1
 288 222 l 1,9,-1
 126 0 l 1,10,-1
 64 0 l 1,11,-1
 64 576 l 1,0,-1
EndSplineSet
Validated: 19457
EndChar

StartChar: question
Encoding: 63 63 55
Width: 448
VWidth: 1024
Flags: W
HStem: 0 128<128 192> 320 64<192 290.67> 576 64<0 290.938>
VStem: 128 64<0 128 192 320> 320 64<413.416 547.17>
LayerCount: 2
Fore
SplineSet
128 0 m 5,0,-1
 128 128 l 1,1,-1
 192 128 l 1,2,-1
 192 0 l 1,3,-1
 128 0 l 5,0,-1
192 192 m 5,4,-1
 128 192 l 1,5,-1
 128 384 l 1,6,-1
 224 384 l 2,7,8
 254 384 254 384 274.5 394 c 128,-1,9
 295 404 295 404 304 421 c 128,-1,10
 313 438 313 438 316.5 452 c 128,-1,11
 320 466 320 466 320 481 c 128,-1,12
 320 496 320 496 316.5 510 c 128,-1,13
 313 524 313 524 304 540 c 128,-1,14
 295 556 295 556 274.5 566 c 128,-1,15
 254 576 254 576 224 576 c 2,16,-1
 0 576 l 1,17,-1
 0 640 l 1,18,-1
 224 640 l 2,19,20
 275 640 275 640 309 623 c 128,-1,21
 343 606 343 606 358 578 c 128,-1,22
 373 550 373 550 378.5 527.5 c 128,-1,23
 384 505 384 505 384 480 c 0,24,25
 384 461 384 461 381 443.5 c 128,-1,26
 378 426 378 426 368.5 402.5 c 128,-1,27
 359 379 359 379 342.5 361.5 c 128,-1,28
 326 344 326 344 295.5 332 c 128,-1,29
 265 320 265 320 224 320 c 2,30,-1
 192 320 l 1,31,-1
 192 192 l 5,4,-1
EndSplineSet
Validated: 19457
EndChar

StartChar: X
Encoding: 88 88 56
Width: 512
VWidth: 0
Flags: W
HStem: 0 21G<54 138.847 373.153 458> 556 20G<44 129.22 382.78 468>
LayerCount: 2
Fore
SplineSet
216 288 m 1,0,-1
 44 576 l 1,1,-1
 118 576 l 1,2,-1
 256 330 l 1,3,-1
 394 576 l 1,4,-1
 468 576 l 1,5,-1
 296 288 l 1,6,-1
 458 0 l 1,7,-1
 384 0 l 1,8,-1
 256 236 l 1,9,-1
 128 0 l 1,10,-1
 54 0 l 1,11,-1
 216 288 l 1,0,-1
EndSplineSet
Validated: 19457
EndChar

StartChar: Z
Encoding: 90 90 57
Width: 512
VWidth: 0
Flags: W
HStem: 0 64<128 448> 512 64<64 384>
VStem: 64 64<64 154> 384 64<486 512>
LayerCount: 2
Fore
SplineSet
64 0 m 1,0,-1
 64 176 l 1,1,-1
 384 486 l 1,2,-1
 384 512 l 1,3,-1
 64 512 l 1,4,-1
 64 576 l 1,5,-1
 448 576 l 1,6,-1
 448 464 l 1,7,-1
 128 154 l 1,8,-1
 128 64 l 1,9,-1
 448 64 l 1,10,-1
 448 0 l 1,11,-1
 64 0 l 1,0,-1
EndSplineSet
Validated: 19457
EndChar

StartChar: one
Encoding: 49 49 58
Width: 512
VWidth: 1024
Flags: W
HStem: 0 64<128 256 320 448> 556 20G<242.667 320>
VStem: 256 64<64 468>
LayerCount: 2
Fore
SplineSet
128 0 m 1,0,-1
 128 64 l 1,1,-1
 256 64 l 1,2,-1
 256 468 l 1,3,-1
 202 384 l 5,4,-1
 128 384 l 1,5,-1
 256 576 l 1,6,-1
 320 576 l 1,7,-1
 320 64 l 1,8,-1
 448 64 l 1,9,-1
 448 0 l 1,10,-1
 128 0 l 1,0,-1
EndSplineSet
Validated: 19457
EndChar

StartChar: hyphen
Encoding: 45 45 59
Width: 448
VWidth: 1024
Flags: W
HStem: 255 64<64 384>
LayerCount: 2
Fore
SplineSet
64 255 m 1,0,-1
 64 319 l 1,1,-1
 384 319 l 1,2,-1
 384 255 l 1,3,-1
 64 255 l 1,0,-1
EndSplineSet
Validated: 19457
EndChar

StartChar: two
Encoding: 50 50 60
Width: 512
VWidth: 0
Flags: W
HStem: 0 64<128 448> 319 65<157.463 366.391> 512 64<64 363.868>
VStem: 64 64<64 290.676> 384 64<402.196 492.719>
LayerCount: 2
Fore
SplineSet
64 0 m 1,0,-1
 64 177 l 2,1,2
 64 203 64 203 64.5 217 c 128,-1,3
 65 231 65 231 68 256.5 c 128,-1,4
 71 282 71 282 76.5 296.5 c 128,-1,5
 82 311 82 311 94 330 c 128,-1,6
 106 349 106 349 122.5 359 c 128,-1,7
 139 369 139 369 165.5 376.5 c 128,-1,8
 192 384 192 384 225 384 c 2,9,-1
 292 384 l 2,10,11
 384 384 384 384 384 448 c 128,-1,12
 384 512 384 512 292 512 c 2,13,-1
 64 512 l 1,14,-1
 64 576 l 1,15,-1
 292 576 l 2,16,17
 448 576 448 576 448 448 c 0,18,19
 448 386 448 386 411.5 352.5 c 128,-1,20
 375 319 375 319 292 319 c 2,21,-1
 228 319 l 2,22,23
 199 319 199 319 179.5 310.5 c 128,-1,24
 160 302 160 302 149.5 291.5 c 128,-1,25
 139 281 139 281 134 258 c 128,-1,26
 129 235 129 235 128.5 219 c 128,-1,27
 128 203 128 203 128 171 c 2,28,-1
 128 64 l 1,29,-1
 448 64 l 1,30,-1
 448 0 l 1,31,-1
 64 0 l 1,0,-1
EndSplineSet
Validated: 19457
EndChar

StartChar: three
Encoding: 51 51 61
Width: 512
VWidth: 0
Flags: W
HStem: -5 64<155.918 355.42> 320 64<192 356.485> 512 64<64 364.329>
VStem: 64 64<88.2491 192> 384 64<88.5225 292.169 401.719 493.049>
LayerCount: 2
Fore
SplineSet
384 448 m 128,-1,1
 384 512 384 512 292 512 c 2,2,-1
 64 512 l 1,3,-1
 64 576 l 1,4,-1
 292 576 l 2,5,6
 449 576 449 576 449 449 c 0,7,8
 449 378 449 378 404 347 c 1,9,10
 448 305 448 305 448 192 c 0,11,12
 448 160 448 160 446 137 c 128,-1,13
 444 114 444 114 434.5 85 c 128,-1,14
 425 56 425 56 408.5 38 c 128,-1,15
 392 20 392 20 361 7.5 c 128,-1,16
 330 -5 330 -5 287 -5 c 2,17,-1
 224 -5 l 2,18,19
 181 -5 181 -5 150 8 c 128,-1,20
 119 21 119 21 103 38.5 c 128,-1,21
 87 56 87 56 78 85.5 c 128,-1,22
 69 115 69 115 66.5 137 c 128,-1,23
 64 159 64 159 64 192 c 1,24,-1
 128 192 l 1,25,26
 128 159 128 159 131 139 c 128,-1,27
 134 119 134 119 143 98.5 c 128,-1,28
 152 78 152 78 172 68.5 c 128,-1,29
 192 59 192 59 224 59 c 2,30,-1
 287 59 l 2,31,32
 347 59 347 59 365.5 92.5 c 128,-1,33
 384 126 384 126 384 192 c 0,34,35
 384 257 384 257 365.5 288.5 c 128,-1,36
 347 320 347 320 287 320 c 2,37,-1
 192 320 l 1,38,-1
 192 384 l 1,39,-1
 292 384 l 2,40,0
 384 384 384 384 384 448 c 128,-1,1
EndSplineSet
Validated: 19457
EndChar

StartChar: four
Encoding: 52 52 62
Width: 512
VWidth: 1024
Flags: W
HStem: 0 21G<320 384> 191 65<128 320 384 448> 556 20G<320 384>
VStem: 64 64<256 528> 320 64<0 191 256 576>
LayerCount: 2
Fore
SplineSet
320 0 m 1,0,-1
 320 191 l 1,1,-1
 64 191 l 1,2,-1
 64 528 l 1,3,-1
 128 528 l 1,4,-1
 128 256 l 1,5,-1
 320 256 l 1,6,-1
 320 576 l 1,7,-1
 384 576 l 1,8,-1
 384 256 l 1,9,-1
 448 256 l 1,10,-1
 448 191 l 1,11,-1
 384 191 l 1,12,-1
 384 0 l 1,13,-1
 320 0 l 1,0,-1
EndSplineSet
Validated: 19457
EndChar

StartChar: five
Encoding: 53 53 63
Width: 512
VWidth: 0
Flags: W
HStem: 0 64<64 357.078> 319 65<128 357.078> 512 64<128 448>
VStem: 64 64<384 512> 384 64<91.9436 291.351>
LayerCount: 2
Fore
SplineSet
287 0 m 2,0,-1
 64 0 l 1,1,-1
 64 64 l 1,2,-1
 287 64 l 2,3,4
 347 64 347 64 365.5 95.5 c 128,-1,5
 384 127 384 127 384 191.5 c 128,-1,6
 384 256 384 256 365.5 287.5 c 128,-1,7
 347 319 347 319 287 319 c 2,8,-1
 64 319 l 1,9,-1
 64 576 l 1,10,-1
 448 576 l 1,11,-1
 448 512 l 1,12,-1
 128 512 l 1,13,-1
 128 384 l 1,14,-1
 287 384 l 2,15,16
 330 383 330 383 361 371 c 128,-1,17
 392 359 392 359 408.5 341.5 c 128,-1,18
 425 324 425 324 434.5 296.5 c 128,-1,19
 444 269 444 269 446 246.5 c 128,-1,20
 448 224 448 224 448 192 c 128,-1,21
 448 160 448 160 446 137.5 c 128,-1,22
 444 115 444 115 434.5 87 c 128,-1,23
 425 59 425 59 408.5 41.5 c 128,-1,24
 392 24 392 24 361 12 c 128,-1,25
 330 0 330 0 287 0 c 2,0,-1
EndSplineSet
Validated: 19457
EndChar

StartChar: six
Encoding: 54 54 64
Width: 512
VWidth: 0
Flags: W
HStem: -5 64<155.918 355.42> 320 64<128 357.078> 512 64<145.801 384>
VStem: 64 64<88.2491 320 384 492.16> 384 64<88.5225 292.056>
LayerCount: 2
Fore
SplineSet
287 320 m 6,0,-1
 128 320 l 1,1,-1
 128 192 l 2,2,3
 128 159 128 159 131 139 c 128,-1,4
 134 119 134 119 143 98.5 c 128,-1,5
 152 78 152 78 172 68.5 c 128,-1,6
 192 59 192 59 224 59 c 2,7,-1
 287 59 l 2,8,9
 347 59 347 59 365.5 92.5 c 128,-1,10
 384 126 384 126 384 192 c 0,11,12
 384 257 384 257 365.5 288.5 c 128,-1,13
 347 320 347 320 287 320 c 6,0,-1
128 384 m 5,14,-1
 287 384 l 2,15,16
 330 384 330 384 361 372 c 128,-1,17
 392 360 392 360 408.5 342.5 c 128,-1,18
 425 325 425 325 434.5 297 c 128,-1,19
 444 269 444 269 446 246.5 c 128,-1,20
 448 224 448 224 448 192 c 128,-1,21
 448 160 448 160 446 137 c 128,-1,22
 444 114 444 114 434.5 85 c 128,-1,23
 425 56 425 56 408.5 38 c 128,-1,24
 392 20 392 20 361 7.5 c 128,-1,25
 330 -5 330 -5 287 -5 c 2,26,-1
 224 -5 l 2,27,28
 181 -5 181 -5 150 8 c 128,-1,29
 119 21 119 21 103 38.5 c 128,-1,30
 87 56 87 56 78 85.5 c 128,-1,31
 69 115 69 115 66.5 137 c 128,-1,32
 64 159 64 159 64 192 c 2,33,-1
 64 449 l 2,34,35
 64 576 64 576 221 576 c 2,36,-1
 384 576 l 1,37,-1
 384 512 l 1,38,-1
 221 512 l 2,39,40
 128 512 128 512 128 448 c 2,41,-1
 128 384 l 5,14,-1
EndSplineSet
Validated: 19457
EndChar

StartChar: seven
Encoding: 55 55 65
Width: 512
VWidth: 1024
Flags: W
HStem: 0 21G<192 256> 512 64<128 384>
VStem: 64 64<384 512> 192 64<0 218> 384 64<432 512>
LayerCount: 2
Fore
SplineSet
192 0 m 1,0,-1
 192 240 l 1,1,-1
 384 432 l 1,2,-1
 384 512 l 1,3,-1
 128 512 l 1,4,-1
 128 384 l 1,5,-1
 64 384 l 1,6,-1
 64 576 l 1,7,-1
 448 576 l 1,8,-1
 448 410 l 1,9,-1
 256 218 l 1,10,-1
 256 0 l 1,11,-1
 192 0 l 1,0,-1
EndSplineSet
Validated: 19457
EndChar

StartChar: nine
Encoding: 57 57 66
Width: 512
VWidth: 0
Flags: W
HStem: 0 64<128 354.938> 256 64<157.33 384> 517 64<158.311 353.689>
VStem: 64 64<349.416 486.319> 384 64<94.006 256 320 486.319>
LayerCount: 2
Fore
SplineSet
288 0 m 2,0,-1
 128 0 l 1,1,-1
 128 64 l 1,2,-1
 288 64 l 2,3,4
 343 64 343 64 363.5 94 c 128,-1,5
 384 124 384 124 384 159 c 2,6,-1
 384 256 l 1,7,-1
 224 256 l 2,8,9
 183 256 183 256 152.5 268 c 128,-1,10
 122 280 122 280 105.5 297.5 c 128,-1,11
 89 315 89 315 79.5 338.5 c 128,-1,12
 70 362 70 362 67 379.5 c 128,-1,13
 64 397 64 397 64 416 c 128,-1,14
 64 435 64 435 67 453 c 128,-1,15
 70 471 70 471 79.5 495.5 c 128,-1,16
 89 520 89 520 105.5 538 c 128,-1,17
 122 556 122 556 152.5 568.5 c 128,-1,18
 183 581 183 581 224 581 c 2,19,-1
 288 581 l 2,20,21
 329 581 329 581 359.5 568.5 c 128,-1,22
 390 556 390 556 406.5 538 c 128,-1,23
 423 520 423 520 432.5 495.5 c 128,-1,24
 442 471 442 471 445 453 c 128,-1,25
 448 435 448 435 448 416 c 2,26,-1
 448 160 l 2,27,28
 448 135 448 135 442.5 112.5 c 128,-1,29
 437 90 437 90 422 62 c 128,-1,30
 407 34 407 34 373 17 c 128,-1,31
 339 0 339 0 288 0 c 2,0,-1
384 417 m 2,32,33
 384 432 384 432 380.5 446.5 c 128,-1,34
 377 461 377 461 368 478.5 c 128,-1,35
 359 496 359 496 338.5 506.5 c 128,-1,36
 318 517 318 517 288 517 c 2,37,-1
 224 517 l 2,38,39
 194 517 194 517 173.5 506.5 c 128,-1,40
 153 496 153 496 144 478.5 c 128,-1,41
 135 461 135 461 131.5 446.5 c 128,-1,42
 128 432 128 432 128 417 c 128,-1,43
 128 402 128 402 131.5 388 c 128,-1,44
 135 374 135 374 144 357 c 128,-1,45
 153 340 153 340 173.5 330 c 128,-1,46
 194 320 194 320 224 320 c 2,47,-1
 384 320 l 1,48,-1
 384 417 l 2,32,33
EndSplineSet
Validated: 19457
EndChar

StartChar: semicolon
Encoding: 59 59 67
Width: 256
VWidth: 1024
Flags: W
HStem: 63 129<64 128> 383 129<64 192>
VStem: 64 128<64 192 383 512>
LayerCount: 2
Fore
SplineSet
64 -65 m 1,0,-1
 128 63 l 1,1,-1
 64 63 l 1,2,-1
 64 192 l 1,3,-1
 192 192 l 1,4,-1
 192 64 l 1,5,-1
 128 -65 l 1,6,-1
 64 -65 l 1,0,-1
64 383 m 1,7,-1
 64 512 l 1,8,-1
 192 512 l 1,9,-1
 192 383 l 1,10,-1
 64 383 l 1,7,-1
EndSplineSet
Validated: 19457
EndChar

StartChar: less
Encoding: 60 60 68
Width: 384
VWidth: 1024
Flags: W
VStem: 44 286
LayerCount: 2
Fore
SplineSet
246 64 m 1,0,-1
 44 288 l 1,1,-1
 246 512 l 1,2,-1
 330 512 l 1,3,-1
 128 288 l 1,4,-1
 330 64 l 1,5,-1
 246 64 l 1,0,-1
EndSplineSet
Validated: 19457
EndChar

StartChar: greater
Encoding: 62 62 69
Width: 384
VWidth: 1024
Flags: W
VStem: 44 286
LayerCount: 2
Fore
SplineSet
128 64 m 1,0,-1
 44 64 l 1,1,-1
 246 288 l 1,2,-1
 44 512 l 1,3,-1
 128 512 l 1,4,-1
 330 288 l 1,5,-1
 128 64 l 1,0,-1
EndSplineSet
Validated: 19457
EndChar

StartChar: equal
Encoding: 61 61 70
Width: 448
VWidth: 1024
Flags: W
HStem: 128 64<64 384> 384 64<64 384>
LayerCount: 2
Fore
SplineSet
64 128 m 1,0,-1
 64 192 l 1,1,-1
 384 192 l 1,2,-1
 384 128 l 1,3,-1
 64 128 l 1,0,-1
64 384 m 1,4,-1
 64 448 l 1,5,-1
 384 448 l 1,6,-1
 384 384 l 1,7,-1
 64 384 l 1,4,-1
EndSplineSet
Validated: 19457
EndChar

StartChar: exclam
Encoding: 33 33 71
Width: 192
VWidth: 1024
Flags: W
HStem: 0 128<64 128> 620 20G<64 128>
VStem: 64 64<0 128 192 640>
LayerCount: 2
Fore
SplineSet
64 0 m 5,0,-1
 64 128 l 1,1,-1
 128 128 l 1,2,-1
 128 0 l 1,3,-1
 64 0 l 5,0,-1
64 192 m 5,4,-1
 64 640 l 1,5,-1
 128 640 l 1,6,-1
 128 192 l 1,7,-1
 64 192 l 5,4,-1
EndSplineSet
Validated: 19457
EndChar

StartChar: quotedbl
Encoding: 34 34 72
Width: 320
VWidth: 1024
Flags: W
HStem: 448 192<64 128 192 256>
VStem: 64 64<448 640> 192 64<448 640>
LayerCount: 2
Fore
SplineSet
64 448 m 5,0,-1
 64 640 l 1,1,-1
 128 640 l 1,2,-1
 128 447 l 1,3,-1
 64 448 l 5,0,-1
192 448 m 5,4,-1
 192 640 l 1,5,-1
 256 640 l 1,6,-1
 256 447 l 1,7,-1
 192 448 l 5,4,-1
EndSplineSet
Validated: 19457
EndChar

StartChar: numbersign
Encoding: 35 35 73
Width: 576
VWidth: 1024
Flags: W
HStem: 0 21G<64 135.559 236 307.874> 127 65<64 112 202 286 374 448> 384 64<128 202 290 374 462 512> 556 20G<268.188 340 440.188 512>
LayerCount: 2
Fore
SplineSet
310 192 m 1,0,-1
 374 384 l 1,1,-1
 266 384 l 1,2,-1
 202 192 l 1,3,-1
 310 192 l 1,0,-1
64 0 m 1,4,-1
 112 127 l 1,5,-1
 64 127 l 1,6,-1
 64 192 l 1,7,-1
 138 192 l 1,8,-1
 202 384 l 1,9,-1
 128 384 l 1,10,-1
 128 448 l 1,11,-1
 226 448 l 1,12,-1
 276 576 l 1,13,-1
 340 576 l 1,14,-1
 290 448 l 1,15,-1
 398 448 l 1,16,-1
 448 576 l 1,17,-1
 512 576 l 1,18,-1
 462 448 l 1,19,-1
 512 448 l 1,20,-1
 512 384 l 1,21,-1
 438 384 l 1,22,-1
 374 192 l 1,23,-1
 448 192 l 1,24,-1
 448 127 l 1,25,-1
 350 127 l 1,26,-1
 300 0 l 1,27,-1
 236 0 l 1,28,-1
 286 127 l 1,29,-1
 176 127 l 1,30,-1
 128 0 l 1,31,-1
 64 0 l 1,4,-1
EndSplineSet
Validated: 19457
EndChar

StartChar: comma
Encoding: 44 44 74
Width: 256
VWidth: 1024
Flags: W
HStem: 0 128<64 128>
VStem: 64 128<0 128>
LayerCount: 2
Fore
SplineSet
64 -128 m 1,0,-1
 128 0 l 1,1,-1
 64 0 l 1,2,-1
 64 128 l 1,3,-1
 192 128 l 1,4,-1
 192 0 l 1,5,-1
 128 -128 l 1,6,-1
 64 -128 l 1,0,-1
EndSplineSet
Validated: 19457
EndChar

StartChar: slash
Encoding: 47 47 75
Width: 512
VWidth: 1024
Flags: W
HStem: 620 20G<374.013 448>
LayerCount: 2
Fore
SplineSet
0 -129 m 5,0,-1
 384 640 l 1,1,-1
 448 640 l 1,2,-1
 64 -129 l 1,3,-1
 0 -129 l 5,0,-1
EndSplineSet
Validated: 19457
EndChar

StartChar: plus
Encoding: 43 43 76
Width: 448
VWidth: 1024
Flags: W
HStem: 256 64<64 192 256 384> 428 20G<192 256>
VStem: 192 64<128 256 320 448>
LayerCount: 2
Fore
SplineSet
192 128 m 1,0,-1
 192 256 l 1,1,-1
 64 256 l 1,2,-1
 64 320 l 1,3,-1
 192 320 l 1,4,-1
 192 448 l 1,5,-1
 256 448 l 1,6,-1
 256 320 l 1,7,-1
 384 320 l 1,8,-1
 384 256 l 1,9,-1
 256 256 l 1,10,-1
 256 128 l 1,11,-1
 192 128 l 1,0,-1
EndSplineSet
Validated: 19457
EndChar

StartChar: quotesingle
Encoding: 39 39 77
Width: 192
VWidth: 1024
Flags: W
HStem: 447 193<64 128>
VStem: 64 64<447 640>
LayerCount: 2
Fore
SplineSet
64 447 m 1,0,-1
 64 640 l 1,1,-1
 128 640 l 1,2,-1
 128 447 l 1,3,-1
 64 447 l 1,0,-1
EndSplineSet
Validated: 19457
EndChar

StartChar: bracketleft
Encoding: 91 91 78
Width: 320
VWidth: 1024
Flags: W
HStem: -65 65<128 256> 575 65<128 256>
VStem: 64 192<-65 0 575 640> 64 64<0 575>
LayerCount: 2
Fore
SplineSet
64 -65 m 5,0,-1
 64 640 l 1,1,-1
 256 640 l 1,2,-1
 256 575 l 1,3,-1
 128 575 l 1,4,-1
 128 0 l 1,5,-1
 256 0 l 1,6,-1
 256 -65 l 1,7,-1
 64 -65 l 5,0,-1
EndSplineSet
Validated: 19457
EndChar

StartChar: bracketright
Encoding: 93 93 79
Width: 320
VWidth: 1024
Flags: W
HStem: -65 65<64 192> 575 65<64 192>
VStem: 64 192<-65 0 575 640> 192 64<0 575>
LayerCount: 2
Fore
SplineSet
256 -65 m 1,0,-1
 64 -65 l 1,1,-1
 64 0 l 1,2,-1
 192 0 l 1,3,-1
 192 575 l 1,4,-1
 64 575 l 1,5,-1
 64 640 l 1,6,-1
 256 640 l 1,7,-1
 256 -65 l 1,0,-1
EndSplineSet
Validated: 19457
EndChar

StartChar: backslash
Encoding: 92 92 80
Width: 512
VWidth: 1024
Flags: W
HStem: 620 20G<0 73.987>
LayerCount: 2
Fore
SplineSet
448 -129 m 1,0,-1
 384 -129 l 1,1,-1
 0 640 l 1,2,-1
 64 640 l 1,3,-1
 448 -129 l 1,0,-1
EndSplineSet
Validated: 19457
EndChar

StartChar: underscore
Encoding: 95 95 81
Width: 512
VWidth: 1024
Flags: W
HStem: -65 64<64 448>
LayerCount: 2
Fore
SplineSet
64 -65 m 1,0,-1
 64 -1 l 1,1,-1
 448 -1 l 1,2,-1
 448 -65 l 1,3,-1
 64 -65 l 1,0,-1
EndSplineSet
Validated: 19457
EndChar

StartChar: bar
Encoding: 124 124 82
Width: 192
VWidth: 1024
Flags: W
VStem: 64 64<-193 768>
LayerCount: 2
Fore
SplineSet
64 -193 m 1,0,-1
 64 768 l 1,1,-1
 128 768 l 1,2,-1
 128 -193 l 1,3,-1
 64 -193 l 1,0,-1
EndSplineSet
Validated: 19457
EndChar

StartChar: asciicircum
Encoding: 94 94 83
Width: 448
VWidth: 1024
Flags: W
HStem: 447 193
AnchorPoint: "top" 224 384.023 mark 0
LayerCount: 2
Fore
SplineSet
64 495 m 1,0,-1
 224 640 l 1,1,-1
 384 495 l 1,2,-1
 336 447 l 1,3,-1
 224 550 l 1,4,-1
 112 447 l 1,5,-1
 64 495 l 1,0,-1
EndSplineSet
Validated: 19457
EndChar

StartChar: grave
Encoding: 96 96 84
Width: 320
VWidth: 1024
Flags: W
HStem: 447 193
VStem: 64 192
AnchorPoint: "top" 160 384 mark 0
LayerCount: 2
Fore
SplineSet
208 447 m 1,0,-1
 64 592 l 1,1,-1
 112 640 l 1,2,-1
 256 495 l 1,3,-1
 208 447 l 1,0,-1
EndSplineSet
Validated: 19457
EndChar

StartChar: parenleft
Encoding: 40 40 85
Width: 320
VWidth: 0
Flags: W
HStem: -65 65<200.875 256> 575 65<200.875 256>
VStem: 64 64<101.216 473.784>
LayerCount: 2
Fore
SplineSet
256 -65 m 5,0,1
 200 -65 200 -65 159.5 -33.5 c 128,-1,2
 119 -2 119 -2 99.5 47.5 c 128,-1,3
 80 97 80 97 72 143 c 128,-1,4
 64 189 64 189 64 233 c 2,5,-1
 64 342 l 2,6,7
 64 386 64 386 72 432 c 128,-1,8
 80 478 80 478 99.5 527.5 c 128,-1,9
 119 577 119 577 159.5 608.5 c 128,-1,10
 200 640 200 640 256 640 c 1,11,-1
 256 575 l 1,12,13
 211 575 211 575 180.5 533 c 128,-1,14
 150 491 150 491 139 439.5 c 128,-1,15
 128 388 128 388 128 335 c 2,16,-1
 128 240 l 2,17,18
 128 187 128 187 139 135.5 c 128,-1,19
 150 84 150 84 180.5 42 c 128,-1,20
 211 0 211 0 256 0 c 1,21,-1
 256 -65 l 5,0,1
EndSplineSet
Validated: 19457
EndChar

StartChar: parenright
Encoding: 41 41 86
Width: 320
VWidth: 0
Flags: W
HStem: -65 65<64 119.125> 575 65<64 119.125>
VStem: 192 64<101.216 473.784>
LayerCount: 2
Fore
SplineSet
64 -65 m 1,0,-1
 64 0 l 1,1,2
 109 0 109 0 139.5 42 c 128,-1,3
 170 84 170 84 181 135.5 c 128,-1,4
 192 187 192 187 192 240 c 2,5,-1
 192 335 l 2,6,7
 192 388 192 388 181 439.5 c 128,-1,8
 170 491 170 491 139.5 533 c 128,-1,9
 109 575 109 575 64 575 c 1,10,-1
 64 640 l 1,11,12
 120 640 120 640 160.5 608.5 c 128,-1,13
 201 577 201 577 220.5 527.5 c 128,-1,14
 240 478 240 478 248 432 c 128,-1,15
 256 386 256 386 256 342 c 2,16,-1
 256 233 l 2,17,18
 256 189 256 189 248 143 c 128,-1,19
 240 97 240 97 220.5 47.5 c 128,-1,20
 201 -2 201 -2 160.5 -33.5 c 128,-1,21
 120 -65 120 -65 64 -65 c 1,0,-1
EndSplineSet
Validated: 19457
EndChar

StartChar: asterisk
Encoding: 42 42 87
Width: 448
VWidth: 1024
Flags: W
HStem: 428 20G<86.7368 129.778 318.222 361.263>
VStem: 192 64<64 218 358 512>
LayerCount: 2
Fore
SplineSet
192 64 m 1,0,-1
 192 218 l 1,1,-1
 112 128 l 1,2,-1
 64 166 l 1,3,-1
 176 288 l 1,4,-1
 64 410 l 1,5,-1
 112 448 l 1,6,-1
 192 358 l 1,7,-1
 192 512 l 1,8,-1
 256 512 l 1,9,-1
 256 358 l 1,10,-1
 336 448 l 1,11,-1
 384 410 l 1,12,-1
 272 288 l 1,13,-1
 384 166 l 1,14,-1
 336 128 l 1,15,-1
 256 218 l 1,16,-1
 256 64 l 1,17,-1
 192 64 l 1,0,-1
EndSplineSet
Validated: 19457
EndChar

StartChar: percent
Encoding: 37 37 88
Width: 576
VWidth: 1024
Flags: W
HStem: 0 66<387.572 446.39> 129 63<387.572 446.39> 380 64<131.643 190.319> 508 64<131.643 190.319>
VStem: 64 65<446.131 505.774> 193 64<446.296 505.964> 320 65<68.3352 126.909> 449 64<68.3352 126.909>
LayerCount: 2
Fore
SplineSet
129 476 m 128,-1,1
 129 464 129 464 138.5 454 c 128,-1,2
 148 444 148 444 161 444 c 128,-1,3
 174 444 174 444 183.5 454 c 128,-1,4
 193 464 193 464 193 476 c 128,-1,5
 193 488 193 488 183.5 498 c 128,-1,6
 174 508 174 508 161 508 c 128,-1,7
 148 508 148 508 138.5 498 c 128,-1,0
 129 488 129 488 129 476 c 128,-1,1
64 475 m 0,8,9
 64 515 64 515 93 543.5 c 128,-1,10
 122 572 122 572 161 572 c 128,-1,11
 200 572 200 572 228.5 543.5 c 128,-1,12
 257 515 257 515 257 479 c 0,13,14
 257 436 257 436 228.5 408 c 128,-1,15
 200 380 200 380 161 380 c 128,-1,16
 122 380 122 380 93 408 c 128,-1,17
 64 436 64 436 64 475 c 0,8,9
385 97.5 m 132,-1,19
 385 86 385 86 394.5 76 c 132,-1,20
 404 66 404 66 417 66 c 132,-1,21
 430 66 430 66 439.5 76 c 132,-1,22
 449 86 449 86 449 97.5 c 132,-1,23
 449 109 449 109 439.5 119 c 132,-1,24
 430 129 430 129 417 129 c 132,-1,25
 404 129 404 129 394.5 119 c 132,-1,18
 385 109 385 109 385 97.5 c 132,-1,19
320 97 m 4,26,27
 320 136 320 136 349 164 c 132,-1,28
 378 192 378 192 417 192 c 132,-1,29
 456 192 456 192 484.5 164 c 132,-1,30
 513 136 513 136 513 97 c 4,31,32
 513 57 513 57 484.5 28.5 c 132,-1,33
 456 0 456 0 417 0 c 132,-1,34
 378 0 378 0 349 28.5 c 132,-1,35
 320 57 320 57 320 97 c 4,26,27
128 0 m 1,36,-1
 384 577 l 1,37,-1
 448 577 l 1,38,-1
 192 0 l 1,39,-1
 128 0 l 1,36,-1
EndSplineSet
Validated: 19457
EndChar

StartChar: dollar
Encoding: 36 36 89
Width: 448
VWidth: 0
Flags: W
HStem: -3 65<153.181 192> 321 65<143.021 192> 512 64<145.281 192 256 352> 620 20G<192 256>
VStem: 64 64<88.6404 192 402.336 493.849> 192 64<-64 0.234375 62 317 386 510 576 640> 320 64<89.3668 291.964>
CounterMasks: 1 0e
LayerCount: 2
Fore
SplineSet
256 382 m 1,0,1
 290 378 290 378 314.5 364 c 128,-1,2
 339 350 339 350 352.5 333 c 128,-1,3
 366 316 366 316 373 289.5 c 128,-1,4
 380 263 380 263 382 242 c 128,-1,5
 384 221 384 221 384 192 c 0,6,7
 384 168 384 168 382.5 150 c 128,-1,8
 381 132 381 132 377 109.5 c 128,-1,9
 373 87 373 87 364.5 70 c 128,-1,10
 356 53 356 53 342.5 37 c 128,-1,11
 329 21 329 21 307 11 c 128,-1,12
 285 1 285 1 256 -3 c 1,13,-1
 256 -64 l 1,14,-1
 192 -64 l 1,15,-1
 192 -3 l 1,16,17
 163 0 163 0 141 10 c 128,-1,18
 119 20 119 20 105.5 36 c 128,-1,19
 92 52 92 52 83.5 68.5 c 128,-1,20
 75 85 75 85 71 108.5 c 128,-1,21
 67 132 67 132 65.5 149.5 c 128,-1,22
 64 167 64 167 64 192 c 1,23,-1
 128 192 l 1,24,25
 128 173 128 173 129 160.5 c 128,-1,26
 130 148 130 148 132 133 c 128,-1,27
 134 118 134 118 138.5 107.5 c 128,-1,28
 143 97 143 97 149.5 87.5 c 128,-1,29
 156 78 156 78 167 71.5 c 128,-1,30
 178 65 178 65 192 62 c 1,31,-1
 192 321 l 1,32,33
 124 327 124 327 94 359.5 c 128,-1,34
 64 392 64 392 64 449 c 0,35,36
 64 563 64 563 192 575 c 1,37,-1
 192 640 l 1,38,-1
 256 640 l 1,39,-1
 256 576 l 1,40,-1
 352 576 l 1,41,-1
 352 512 l 1,42,-1
 256 512 l 1,43,-1
 256 382 l 1,0,1
256 62 m 1,44,45
 277 67 277 67 290 79 c 128,-1,46
 303 91 303 91 309.5 109.5 c 128,-1,47
 316 128 316 128 318 146.5 c 128,-1,48
 320 165 320 165 320 192 c 0,49,50
 320 248 320 248 307.5 278 c 128,-1,51
 295 308 295 308 256 317 c 1,52,-1
 256 62 l 1,44,45
192 510 m 1,53,54
 128 501 128 501 128 448 c 128,-1,55
 128 395 128 395 192 386 c 1,56,-1
 192 510 l 1,53,54
EndSplineSet
Validated: 19457
EndChar

StartChar: ampersand
Encoding: 38 38 90
Width: 512
VWidth: 1024
Flags: W
HStem: -2 64<156.248 291.317> 512 64<145.489 238.511>
VStem: 64 64<91.5225 293.587 401.941 494.511> 256 64<401.62 494.511>
LayerCount: 2
Fore
SplineSet
192 384 m 0,0,1
 218 384 218 384 237 403 c 128,-1,2
 256 422 256 422 256 448 c 128,-1,3
 256 474 256 474 237 493 c 128,-1,4
 218 512 218 512 192 512 c 128,-1,5
 166 512 166 512 147 493 c 128,-1,6
 128 474 128 474 128 448 c 0,7,8
 128 421 128 421 146.5 402.5 c 128,-1,9
 165 384 165 384 192 384 c 0,0,1
64 448 m 0,10,11
 64 501 64 501 101.5 538.5 c 128,-1,12
 139 576 139 576 192 576 c 128,-1,13
 245 576 245 576 282.5 538.5 c 128,-1,14
 320 501 320 501 320 448 c 0,15,16
 320 410 320 410 300 378.5 c 128,-1,17
 280 347 280 347 247 332 c 1,18,-1
 345 171 l 1,19,-1
 384 256 l 1,20,-1
 449 256 l 1,21,-1
 382 109 l 1,22,-1
 448 0 l 1,23,-1
 384 0 l 1,24,-1
 353 49 l 1,25,26
 336 20 336 20 310.5 9 c 128,-1,27
 285 -2 285 -2 225 -2 c 0,28,29
 182 -2 182 -2 151 10.5 c 128,-1,30
 120 23 120 23 103.5 41 c 128,-1,31
 87 59 87 59 77.5 88 c 128,-1,32
 68 117 68 117 66 140 c 128,-1,33
 64 163 64 163 64 195 c 0,34,35
 64 308 64 308 109 350 c 1,36,37
 64 387 64 387 64 448 c 0,10,11
181 316 m 1,38,39
 149 305 149 305 138.5 276 c 128,-1,40
 128 247 128 247 128 195 c 0,41,42
 128 129 128 129 146.5 95.5 c 128,-1,43
 165 62 165 62 225 62 c 0,44,45
 266 62 266 62 284.5 71.5 c 128,-1,46
 303 81 303 81 315 107 c 1,47,-1
 181 316 l 1,38,39
EndSplineSet
Validated: 19457
EndChar

StartChar: at
Encoding: 64 64 91
Width: 576
VWidth: 1024
Flags: W
HStem: -65 65<157.107 512> 127 65<256 320 384 448> 516 65<157.107 418.893>
VStem: 64 64<28.5312 487.469> 192 64<192 256> 320 64<192 320> 448 64<192 487.469>
LayerCount: 2
Fore
SplineSet
320 192 m 1,0,-1
 320 320 l 1,1,-1
 256 256 l 1,2,-1
 256 192 l 1,3,-1
 320 192 l 1,0,-1
512 -65 m 1,4,-1
 224 -65 l 2,5,6
 191 -65 191 -65 165 -57.5 c 128,-1,7
 139 -50 139 -50 122.5 -39.5 c 128,-1,8
 106 -29 106 -29 94.5 -10 c 128,-1,9
 83 9 83 9 77 24.5 c 128,-1,10
 71 40 71 40 68 65.5 c 128,-1,11
 65 91 65 91 64.5 106 c 128,-1,12
 64 121 64 121 64 147 c 2,13,-1
 64 369 l 2,14,15
 64 395 64 395 64.5 410 c 128,-1,16
 65 425 65 425 68 450.5 c 128,-1,17
 71 476 71 476 77 491.5 c 128,-1,18
 83 507 83 507 94.5 526 c 128,-1,19
 106 545 106 545 122.5 555.5 c 128,-1,20
 139 566 139 566 165 573.5 c 128,-1,21
 191 581 191 581 224 581 c 2,22,-1
 352 581 l 2,23,24
 385 581 385 581 411 573.5 c 128,-1,25
 437 566 437 566 453.5 555.5 c 128,-1,26
 470 545 470 545 481.5 526 c 128,-1,27
 493 507 493 507 499 491.5 c 128,-1,28
 505 476 505 476 508 450.5 c 128,-1,29
 511 425 511 425 511.5 410 c 128,-1,30
 512 395 512 395 512 369 c 2,31,-1
 512 127 l 1,32,-1
 192 127 l 1,33,-1
 192 276 l 1,34,-1
 300 383 l 1,35,-1
 384 383 l 1,36,-1
 384 192 l 1,37,-1
 448 192 l 1,38,-1
 448 362 l 2,39,40
 448 395 448 395 447.5 411 c 128,-1,41
 447 427 447 427 442 451.5 c 128,-1,42
 437 476 437 476 427.5 487 c 128,-1,43
 418 498 418 498 399 507 c 128,-1,44
 380 516 380 516 352 516 c 2,45,-1
 224 516 l 2,46,47
 196 516 196 516 177 507 c 128,-1,48
 158 498 158 498 148.5 487 c 128,-1,49
 139 476 139 476 134 451.5 c 128,-1,50
 129 427 129 427 128.5 411 c 128,-1,51
 128 395 128 395 128 362 c 2,52,-1
 128 154 l 2,53,54
 128 121 128 121 128.5 105 c 128,-1,55
 129 89 129 89 134 64.5 c 128,-1,56
 139 40 139 40 148.5 29 c 128,-1,57
 158 18 158 18 177 9 c 128,-1,58
 196 0 196 0 224 0 c 2,59,-1
 512 0 l 1,60,-1
 512 -65 l 1,4,-1
EndSplineSet
Validated: 19457
EndChar

StartChar: braceleft
Encoding: 123 123 92
Width: 448
VWidth: 0
Flags: W
HStem: -65 65<282.227 384> 575 65<282.227 384>
VStem: 192.5 63.5<26.9438 146 429 548.056>
LayerCount: 2
Fore
SplineSet
256 407 m 5,0,-1
 138 288 l 1,1,-1
 256 168 l 1,2,-1
 256 129 l 2,3,4
 256 63 256 63 274 31.5 c 128,-1,5
 292 0 292 0 352 0 c 2,6,-1
 384 0 l 1,7,-1
 384 -65 l 1,8,-1
 352 -65 l 2,9,10
 319 -65 319 -65 293 -58 c 128,-1,11
 267 -51 267 -51 250.5 -40.5 c 128,-1,12
 234 -30 234 -30 222.5 -11.5 c 128,-1,13
 211 7 211 7 205 22 c 128,-1,14
 199 37 199 37 196 62.5 c 128,-1,15
 193 88 193 88 192.5 102.5 c 128,-1,16
 192 117 192 117 192 143 c 2,17,-1
 192 146 l 1,18,-1
 54 288 l 1,19,-1
 192 429 l 1,20,-1
 192 432 l 2,21,22
 192 458 192 458 192.5 472.5 c 128,-1,23
 193 487 193 487 196 512.5 c 128,-1,24
 199 538 199 538 205 553 c 128,-1,25
 211 568 211 568 222.5 586.5 c 128,-1,26
 234 605 234 605 250.5 615.5 c 128,-1,27
 267 626 267 626 293 633 c 128,-1,28
 319 640 319 640 352 640 c 2,29,-1
 384 640 l 1,30,-1
 384 575 l 1,31,-1
 352 575 l 2,32,33
 292 575 292 575 274 543.5 c 128,-1,34
 256 512 256 512 256 447 c 2,35,-1
 256 407 l 5,0,-1
EndSplineSet
Validated: 19457
EndChar

StartChar: braceright
Encoding: 125 125 93
Width: 448
VWidth: 0
Flags: W
HStem: -65 65<64 165.773> 575 65<64 165.773>
VStem: 192 64<26.9438 146 429 548.056>
LayerCount: 2
Fore
SplineSet
192 407 m 1,0,-1
 192 447 l 2,1,2
 192 512 192 512 174 543.5 c 128,-1,3
 156 575 156 575 96 575 c 2,4,-1
 64 575 l 1,5,-1
 64 640 l 1,6,-1
 96 640 l 2,7,8
 129 640 129 640 155 633 c 128,-1,9
 181 626 181 626 197.5 615.5 c 128,-1,10
 214 605 214 605 225.5 586.5 c 128,-1,11
 237 568 237 568 243 553 c 128,-1,12
 249 538 249 538 252 512.5 c 128,-1,13
 255 487 255 487 255.5 472.5 c 128,-1,14
 256 458 256 458 256 432 c 2,15,-1
 256 429 l 1,16,-1
 394 288 l 1,17,-1
 256 146 l 1,18,-1
 256 143 l 2,19,20
 256 117 256 117 255.5 102.5 c 128,-1,21
 255 88 255 88 252 62.5 c 128,-1,22
 249 37 249 37 243 22 c 128,-1,23
 237 7 237 7 225.5 -11.5 c 128,-1,24
 214 -30 214 -30 197.5 -40.5 c 128,-1,25
 181 -51 181 -51 155 -58 c 128,-1,26
 129 -65 129 -65 96 -65 c 2,27,-1
 64 -65 l 1,28,-1
 64 0 l 1,29,-1
 96 0 l 2,30,31
 156 0 156 0 174 31.5 c 128,-1,32
 192 63 192 63 192 129 c 2,33,-1
 192 168 l 1,34,-1
 310 288 l 1,35,-1
 192 407 l 1,0,-1
EndSplineSet
Validated: 19457
EndChar

StartChar: uni0000
Encoding: 0 0 94
Width: 448
VWidth: 1024
Flags: W
HStem: 0 128<128 192> 320 64<192 290.67> 576 64<0 290.938>
VStem: 128 64<0 128 192 320> 320 64<413.416 547.17>
LayerCount: 2
Fore
SplineSet
128 0 m 5,0,-1
 128 128 l 1,1,-1
 192 128 l 1,2,-1
 192 0 l 1,3,-1
 128 0 l 5,0,-1
192 192 m 5,4,-1
 128 192 l 1,5,-1
 128 384 l 1,6,-1
 224 384 l 2,7,8
 254 384 254 384 274.5 394 c 128,-1,9
 295 404 295 404 304 421 c 128,-1,10
 313 438 313 438 316.5 452 c 128,-1,11
 320 466 320 466 320 481 c 128,-1,12
 320 496 320 496 316.5 510 c 128,-1,13
 313 524 313 524 304 540 c 128,-1,14
 295 556 295 556 274.5 566 c 128,-1,15
 254 576 254 576 224 576 c 2,16,-1
 0 576 l 1,17,-1
 0 640 l 1,18,-1
 224 640 l 2,19,20
 275 640 275 640 309 623 c 128,-1,21
 343 606 343 606 358 578 c 128,-1,22
 373 550 373 550 378.5 527.5 c 128,-1,23
 384 505 384 505 384 480 c 0,24,25
 384 461 384 461 381 443.5 c 128,-1,26
 378 426 378 426 368.5 402.5 c 128,-1,27
 359 379 359 379 342.5 361.5 c 128,-1,28
 326 344 326 344 295.5 332 c 128,-1,29
 265 320 265 320 224 320 c 2,30,-1
 192 320 l 1,31,-1
 192 192 l 5,4,-1
EndSplineSet
Validated: 19457
EndChar

StartChar: acute
Encoding: 180 180 95
Width: 320
VWidth: 1024
Flags: W
HStem: 447 193
VStem: 64 192
AnchorPoint: "top" 160 384 mark 0
LayerCount: 2
Fore
SplineSet
112 447 m 1,0,-1
 64 495 l 1,1,-1
 208 640 l 1,2,-1
 256 592 l 1,3,-1
 112 447 l 1,0,-1
EndSplineSet
Validated: 19457
EndChar

StartChar: asciitilde
Encoding: 126 126 100
Width: 512
VWidth: 0
Flags: W
HStem: 255 65<279.648 371.688> 319 65<140.312 236.07>
VStem: 64 64<255 306.75> 384 64<332.25 384>
AnchorPoint: "top" 256 192 mark 0
LayerCount: 2
Fore
SplineSet
448 384 m 1,0,1
 448 331 448 331 412.5 293 c 128,-1,2
 377 255 377 255 320 255 c 0,3,4
 297 255 297 255 252.5 287 c 128,-1,5
 208 319 208 319 192 319 c 0,6,7
 128 319 128 319 128 255 c 1,8,-1
 64 255 l 1,9,10
 64 308 64 308 99.5 346 c 128,-1,11
 135 384 135 384 192 384 c 0,12,13
 222 384 222 384 264 352 c 128,-1,14
 306 320 306 320 320 320 c 0,15,16
 384 320 384 320 384 384 c 1,17,-1
 448 384 l 1,0,1
EndSplineSet
EndChar

StartChar: dieresis
Encoding: 168 168 110
Width: 320
VWidth: 1024
Flags: W
HStem: 575 65<64 128 192 256>
VStem: 64 64<575 640> 192 64<575 640>
AnchorPoint: "top" 160 512.084 mark 0
LayerCount: 2
Fore
SplineSet
64 575 m 1,0,-1
 64 640 l 1,1,-1
 128 640 l 1,2,-1
 128 575 l 1,3,-1
 64 575 l 1,0,-1
192 575 m 1,4,-1
 192 640 l 1,5,-1
 256 640 l 1,6,-1
 256 575 l 1,7,-1
 192 575 l 1,4,-1
EndSplineSet
Validated: 19457
EndChar

StartChar: exclamdown
Encoding: 161 161 119
Width: 192
VWidth: 1024
Flags: W
HStem: 320 128<64 128>
VStem: 64 64<-192 256 320 448>
LayerCount: 2
Fore
SplineSet
128 448 m 5,0,-1
 128 320 l 1,1,-1
 64 320 l 1,2,-1
 64 448 l 1,3,-1
 128 448 l 5,0,-1
128 256 m 5,4,-1
 128 -192 l 1,5,-1
 64 -192 l 1,6,-1
 64 256 l 1,7,-1
 128 256 l 5,4,-1
EndSplineSet
Validated: 19457
EndChar

StartChar: questiondown
Encoding: 191 191 120
Width: 448
VWidth: 1024
Flags: W
HStem: -192 64<93.0625 384> 64 64<93.3297 192> 320 128<192 256>
VStem: 0 64<-99.1704 34.5842> 192 64<128 256 320 448>
LayerCount: 2
Fore
SplineSet
256 448 m 5,0,-1
 256 320 l 1,1,-1
 192 320 l 1,2,-1
 192 448 l 1,3,-1
 256 448 l 5,0,-1
192 256 m 5,4,-1
 256 256 l 1,5,-1
 256 64 l 1,6,-1
 160 64 l 2,7,8
 130 64 130 64 109.5 54 c 128,-1,9
 89 44 89 44 80 27 c 128,-1,10
 71 10 71 10 67.5 -4 c 128,-1,11
 64 -18 64 -18 64 -33 c 128,-1,12
 64 -48 64 -48 67.5 -62 c 128,-1,13
 71 -76 71 -76 80 -92 c 128,-1,14
 89 -108 89 -108 109.5 -118 c 128,-1,15
 130 -128 130 -128 160 -128 c 2,16,-1
 384 -128 l 1,17,-1
 384 -192 l 1,18,-1
 160 -192 l 2,19,20
 109 -192 109 -192 75 -175 c 128,-1,21
 41 -158 41 -158 26 -130 c 128,-1,22
 11 -102 11 -102 5.5 -79.5 c 128,-1,23
 0 -57 0 -57 0 -32 c 0,24,25
 0 -13 0 -13 3 4.5 c 128,-1,26
 6 22 6 22 15.5 45.5 c 128,-1,27
 25 69 25 69 41.5 86.5 c 128,-1,28
 58 104 58 104 88.5 116 c 128,-1,29
 119 128 119 128 160 128 c 2,30,-1
 192 128 l 1,31,-1
 192 256 l 5,4,-1
EndSplineSet
Validated: 19457
EndChar

StartChar: dotlessi
Encoding: 305 305 150
Width: 192
VWidth: 0
Flags: W
HStem: 0 21G<64 128> 428 20G<64 128>
VStem: 64 64<0 448>
AnchorPoint: "bottom" 96 0 basechar 0
AnchorPoint: "top" 97 448 basechar 0
LayerCount: 2
Fore
SplineSet
64 448 m 25,0,-1
 128 448 l 1,1,-1
 128 0 l 1,2,-1
 64 0 l 1,3,-1
 64 448 l 25,0,-1
EndSplineSet
Validated: 19457
EndChar

StartChar: uni0237
Encoding: 567 567 151
Width: 320
VWidth: 0
Flags: W
HStem: -192 64<0 165.773> 428 20G<192 256>
VStem: 192 64<-101.599 448>
LayerCount: 2
Fore
SplineSet
192 0 m 2,0,-1
 192 448 l 1,1,-1
 256 448 l 1,2,-1
 256 15 l 2,3,4
 256 -11 256 -11 255.5 -25.5 c 128,-1,5
 255 -40 255 -40 252 -65 c 128,-1,6
 249 -90 249 -90 243 -105 c 128,-1,7
 237 -120 237 -120 225.5 -138.5 c 128,-1,8
 214 -157 214 -157 197.5 -167.5 c 128,-1,9
 181 -178 181 -178 155 -185 c 128,-1,10
 129 -192 129 -192 96 -192 c 2,11,-1
 0 -192 l 1,12,-1
 0 -128 l 1,13,-1
 96 -128 l 2,14,15
 156 -128 156 -128 174 -97 c 128,-1,16
 192 -66 192 -66 192 0 c 2,0,-1
EndSplineSet
Validated: 19457
EndChar

StartChar: macron
Encoding: 175 175 153
Width: 448
VWidth: 0
Flags: W
HStem: 576 64<64 384>
AnchorPoint: "top" 224 512.021 mark 0
LayerCount: 2
Fore
SplineSet
64 640 m 25,0,-1
 384 640 l 1,1,-1
 384 575 l 1,2,-1
 64 576 l 1,3,-1
 64 640 l 25,0,-1
EndSplineSet
Validated: 19457
EndChar

StartChar: ring
Encoding: 730 730 154
Width: 320
VWidth: 1024
Flags: W
HStem: 447 65<131.572 190.39> 575 65<131.572 190.39>
VStem: 64 65<514.175 572.816> 193 64<514.175 572.535>
AnchorPoint: "top" 160 384.079 mark 0
LayerCount: 2
Fore
SplineSet
129 543.5 m 128,-1,1
 129 532 129 532 138.5 522 c 128,-1,2
 148 512 148 512 161 512 c 128,-1,3
 174 512 174 512 183.5 522 c 128,-1,4
 193 532 193 532 193 543.5 c 128,-1,5
 193 555 193 555 183.5 565 c 128,-1,6
 174 575 174 575 161 575 c 128,-1,7
 148 575 148 575 138.5 565 c 128,-1,0
 129 555 129 555 129 543.5 c 128,-1,1
64 542 m 0,8,9
 64 582 64 582 93 611 c 128,-1,10
 122 640 122 640 161 640 c 128,-1,11
 200 640 200 640 228.5 611.5 c 128,-1,12
 257 583 257 583 257 542 c 0,13,14
 257 503 257 503 228.5 475 c 128,-1,15
 200 447 200 447 161 447 c 128,-1,16
 122 447 122 447 93 475 c 128,-1,17
 64 503 64 503 64 542 c 0,8,9
EndSplineSet
Validated: 19457
EndChar

StartChar: cedilla
Encoding: 184 184 158
Width: 383
VWidth: 1024
Flags: W
HStem: -183 65<64 247.965> -20 20G<164 287>
VStem: 248 86<-137.5 -69.0941>
LayerCount: 2
Fore
SplineSet
240 0 m 1,0,1
 334 -69 334 -69 334 -124 c 0,2,3
 334 -151 334 -151 313.5 -167 c 128,-1,4
 293 -183 293 -183 255 -183 c 2,5,-1
 64 -183 l 1,6,-1
 64 -118 l 1,7,-1
 212 -118 l 2,8,9
 248 -118 248 -118 248 -96 c 0,10,11
 248 -89 248 -89 244 -80 c 128,-1,12
 240 -71 240 -71 236 -65 c 2,13,-1
 232 -60 l 1,14,-1
 164 0 l 1,15,-1
 240 0 l 1,0,1
EndSplineSet
Validated: 19457
EndChar

StartChar: uni2160
Encoding: 8544 8544 177
Width: 321
VWidth: 1024
Flags: W
HStem: 0 64<64 128 192 256> 512 64<64 128 192 256>
VStem: 64 192<0 64 512 576>
LayerCount: 2
Fore
SplineSet
64 0 m 5,0,-1
 64 64 l 1,1,-1
 128 64 l 1,2,-1
 128 512 l 1,3,-1
 64 512 l 1,4,-1
 64 576 l 1,5,-1
 256 576 l 1,6,-1
 256 512 l 1,7,-1
 192 512 l 1,8,-1
 192 64 l 1,9,-1
 256 64 l 1,10,-1
 256 0 l 1,11,-1
 64 0 l 5,0,-1
EndSplineSet
Validated: 19457
EndChar

StartChar: uni2161
Encoding: 8545 8545 178
Width: 448
VWidth: 1024
Flags: W
HStem: 0 64<64 128 192 256 320 384> 512 64<64 128 192 256 320 384>
VStem: 128 64<64 512> 256 64<64 512>
LayerCount: 2
Fore
SplineSet
64 0 m 5,0,-1
 64 64 l 1,1,-1
 128 64 l 1,2,-1
 128 512 l 1,3,-1
 64 512 l 1,4,-1
 64 576 l 1,5,-1
 192 576 l 1,6,-1
 256 576 l 1,7,-1
 384 576 l 1,8,-1
 384 512 l 1,9,-1
 320 512 l 1,10,-1
 320 64 l 1,11,-1
 384 64 l 1,12,-1
 384 0 l 1,13,-1
 256 0 l 1,14,-1
 192 0 l 1,15,-1
 64 0 l 5,0,-1
192 512 m 5,16,-1
 192 64 l 1,17,-1
 256 64 l 1,18,-1
 256 512 l 1,19,-1
 192 512 l 5,16,-1
EndSplineSet
Validated: 19457
EndChar

StartChar: uni2162
Encoding: 8546 8546 179
Width: 576
VWidth: 1024
Flags: W
HStem: 0 64<64 128 192 256 320 384 448 512> 512 64<64 128 192 256 320 384 448 512>
VStem: 128 64<64 512> 256 64<64 512> 384 64<64 512>
CounterMasks: 1 38
LayerCount: 2
Fore
SplineSet
64 0 m 1,0,-1
 64 64 l 1,1,-1
 128 64 l 1,2,-1
 128 512 l 1,3,-1
 64 512 l 1,4,-1
 64 576 l 1,5,-1
 192 576 l 1,6,-1
 256 576 l 1,7,-1
 320 576 l 1,8,-1
 384 576 l 1,9,-1
 512 576 l 1,10,-1
 512 512 l 1,11,-1
 448 512 l 1,12,-1
 448 64 l 1,13,-1
 512 64 l 1,14,-1
 512 0 l 1,15,-1
 384 0 l 1,16,-1
 320 0 l 1,17,-1
 256 0 l 1,18,-1
 192 0 l 1,19,-1
 64 0 l 1,0,-1
192 512 m 1,20,-1
 192 64 l 1,21,-1
 256 64 l 1,22,-1
 256 512 l 1,23,-1
 192 512 l 1,20,-1
320 512 m 1,24,-1
 320 64 l 1,25,-1
 384 64 l 1,26,-1
 384 512 l 1,27,-1
 320 512 l 1,24,-1
EndSplineSet
Validated: 19457
EndChar

StartChar: uni2163
Encoding: 8547 8547 180
Width: 705
VWidth: 0
Flags: W
HStem: 0 64<64 128 192 368 467 640> 512 64<64 128 192 238 307 527 597 642>
VStem: 128 64<64 512>
LayerCount: 2
Fore
SplineSet
640 0 m 1,0,-1
 64 0 l 1,1,-1
 64 64 l 1,2,-1
 128 64 l 1,3,-1
 128 512 l 1,4,-1
 64 512 l 1,5,-1
 64 576 l 1,6,-1
 642 576 l 1,7,-1
 642 512 l 1,8,-1
 597 512 l 1,9,-1
 467 64 l 1,10,-1
 640 64 l 1,11,-1
 640 0 l 1,0,-1
192 64 m 1,12,-1
 368 64 l 1,13,-1
 238 512 l 1,14,-1
 192 512 l 1,15,-1
 192 64 l 1,12,-1
527 512 m 1,16,-1
 307 512 l 1,17,-1
 417 131 l 1,18,-1
 527 512 l 1,16,-1
EndSplineSet
Validated: 19457
EndChar

StartChar: uni2164
Encoding: 8548 8548 181
Width: 577
VWidth: 0
Flags: W
HStem: 0 64<64 240 339 512> 512 64<64 110 179 399 469 514>
LayerCount: 2
Fore
SplineSet
64 64 m 5,0,-1
 129 64 l 1,1,-1
 240 64 l 1,2,-1
 110 512 l 1,3,-1
 64 512 l 1,4,-1
 64 576 l 1,5,-1
 514 576 l 1,6,-1
 514 512 l 1,7,-1
 469 512 l 1,8,-1
 339 64 l 1,9,-1
 512 64 l 1,10,-1
 512 0 l 1,11,-1
 64 0 l 1,12,-1
 64 64 l 5,0,-1
399 512 m 5,13,-1
 179 512 l 1,14,-1
 289 131 l 1,15,-1
 399 512 l 5,13,-1
EndSplineSet
Validated: 19457
EndChar

StartChar: uni2165
Encoding: 8549 8549 182
Width: 704
VWidth: 0
Flags: W
HStem: 0 64<64 240 339 512 576 640> 512 64<64 110 179 399 469 512 576 640>
VStem: 512 64<64 512>
LayerCount: 2
Fore
SplineSet
64 64 m 5,0,-1
 240 64 l 1,1,-1
 110 512 l 1,2,-1
 64 512 l 1,3,-1
 64 576 l 1,4,-1
 640 576 l 1,5,-1
 640 512 l 1,6,-1
 576 512 l 1,7,-1
 576 64 l 1,8,-1
 640 64 l 1,9,-1
 640 0 l 1,10,-1
 64 0 l 1,11,-1
 64 64 l 5,0,-1
399 512 m 5,12,-1
 179 512 l 1,13,-1
 289 131 l 1,14,-1
 399 512 l 5,12,-1
339 64 m 5,15,-1
 512 64 l 1,16,-1
 512 512 l 1,17,-1
 469 512 l 1,18,-1
 339 64 l 5,15,-1
EndSplineSet
Validated: 19457
EndChar

StartChar: uni2166
Encoding: 8550 8550 183
Width: 832
VWidth: 0
Flags: W
HStem: 0 64<64 240 339 512 576 640 704 768> 512 64<64 110 179 399 469 512 576 640 704 768>
VStem: 512 64<64 512> 640 64<64 512>
LayerCount: 2
Fore
SplineSet
339 64 m 5,0,-1
 512 64 l 1,1,-1
 512 512 l 1,2,-1
 469 512 l 1,3,-1
 339 64 l 5,0,-1
399 512 m 5,4,-1
 179 512 l 1,5,-1
 289 131 l 1,6,-1
 399 512 l 5,4,-1
64 64 m 5,7,-1
 240 64 l 1,8,-1
 110 512 l 1,9,-1
 64 512 l 1,10,-1
 64 576 l 1,11,-1
 768 576 l 1,12,-1
 768 512 l 1,13,-1
 704 512 l 1,14,-1
 704 64 l 1,15,-1
 768 64 l 1,16,-1
 768 0 l 1,17,-1
 64 0 l 1,18,-1
 64 64 l 5,7,-1
576 512 m 5,19,-1
 576 64 l 1,20,-1
 640 64 l 1,21,-1
 640 512 l 1,22,-1
 576 512 l 5,19,-1
EndSplineSet
Validated: 19457
EndChar

StartChar: uni2167
Encoding: 8551 8551 184
Width: 960
VWidth: 0
Flags: W
HStem: 0 64<64 240 339 512 576 640 704 768 832 896> 512 64<64 110 179 399 469 512 576 640 704 768 832 896>
VStem: 512 64<64 512> 640 64<64 512> 768 64<64 512>
CounterMasks: 1 38
LayerCount: 2
Fore
SplineSet
576 512 m 1,0,-1
 576 64 l 1,1,-1
 640 64 l 1,2,-1
 640 512 l 1,3,-1
 576 512 l 1,0,-1
64 64 m 1,4,-1
 240 64 l 1,5,-1
 110 512 l 1,6,-1
 64 512 l 1,7,-1
 64 576 l 1,8,-1
 896 576 l 1,9,-1
 896 512 l 1,10,-1
 832 512 l 1,11,-1
 832 64 l 1,12,-1
 896 64 l 1,13,-1
 896 0 l 1,14,-1
 64 0 l 1,15,-1
 64 64 l 1,4,-1
399 512 m 1,16,-1
 179 512 l 1,17,-1
 289 131 l 1,18,-1
 399 512 l 1,16,-1
339 64 m 1,19,-1
 512 64 l 1,20,-1
 512 512 l 1,21,-1
 469 512 l 1,22,-1
 339 64 l 1,19,-1
704 512 m 1,23,-1
 704 64 l 1,24,-1
 768 64 l 1,25,-1
 768 512 l 1,26,-1
 704 512 l 1,23,-1
EndSplineSet
Validated: 19457
EndChar

StartChar: uni2169
Encoding: 8553 8553 185
Width: 576
VWidth: 0
Flags: W
HStem: 0 64<64 122 195 381 454 512> 512 64<64 114 186 390 462 512>
LayerCount: 2
Fore
SplineSet
64 0 m 5,0,-1
 64 64 l 1,1,-1
 122 64 l 1,2,-1
 248 288 l 1,3,-1
 114 512 l 1,4,-1
 64 512 l 1,5,-1
 64 576 l 1,6,-1
 512 576 l 1,7,-1
 512 512 l 1,8,-1
 462 512 l 1,9,-1
 328 288 l 1,10,-1
 454 64 l 1,11,-1
 512 64 l 1,12,-1
 512 0 l 1,13,-1
 64 0 l 5,0,-1
186 512 m 5,14,-1
 288 330 l 1,15,-1
 390 512 l 1,16,-1
 186 512 l 5,14,-1
195 64 m 5,17,-1
 381 64 l 1,18,-1
 288 236 l 1,19,-1
 195 64 l 5,17,-1
EndSplineSet
Validated: 19457
EndChar

StartChar: uni2168
Encoding: 8552 8552 186
Width: 704
VWidth: 0
Flags: W
HStem: 0 64<64 128 192 250 323 509 582 640> 512 64<64 128 192 242 314 518 590 640>
VStem: 128 64<64 512>
LayerCount: 2
Fore
SplineSet
64 0 m 1,0,-1
 64 64 l 1,1,-1
 128 64 l 1,2,-1
 128 512 l 1,3,-1
 64 512 l 1,4,-1
 64 576 l 1,5,-1
 640 576 l 1,6,-1
 640 512 l 1,7,-1
 590 512 l 1,8,-1
 456 288 l 1,9,-1
 582 64 l 1,10,-1
 640 64 l 1,11,-1
 640 0 l 1,12,-1
 64 0 l 1,0,-1
314 512 m 1,13,-1
 416 330 l 1,14,-1
 518 512 l 1,15,-1
 314 512 l 1,13,-1
323 64 m 1,16,-1
 509 64 l 1,17,-1
 416 236 l 1,18,-1
 323 64 l 1,16,-1
192 512 m 1,19,-1
 192 64 l 1,20,-1
 250 64 l 1,21,-1
 376 288 l 1,22,-1
 242 512 l 1,23,-1
 192 512 l 1,19,-1
EndSplineSet
Validated: 19457
EndChar

StartChar: uni216A
Encoding: 8554 8554 187
Width: 704
VWidth: 0
Flags: W
HStem: 0 64<64 122 195 381 454 512 576 640> 512 64<64 114 186 390 462 512 576 640>
VStem: 512 64<64 512>
LayerCount: 2
Fore
SplineSet
195 64 m 5,0,-1
 381 64 l 1,1,-1
 288 236 l 1,2,-1
 195 64 l 5,0,-1
186 512 m 5,3,-1
 288 330 l 1,4,-1
 390 512 l 1,5,-1
 186 512 l 5,3,-1
64 0 m 5,6,-1
 64 64 l 1,7,-1
 122 64 l 1,8,-1
 248 288 l 1,9,-1
 114 512 l 1,10,-1
 64 512 l 1,11,-1
 64 576 l 1,12,-1
 640 576 l 1,13,-1
 640 512 l 1,14,-1
 576 512 l 1,15,-1
 576 64 l 1,16,-1
 640 64 l 1,17,-1
 640 0 l 1,18,-1
 64 0 l 5,6,-1
462 512 m 5,19,-1
 328 288 l 1,20,-1
 454 64 l 1,21,-1
 512 64 l 1,22,-1
 512 512 l 1,23,-1
 462 512 l 5,19,-1
EndSplineSet
Validated: 19457
EndChar

StartChar: uni216B
Encoding: 8555 8555 188
Width: 832
VWidth: 0
Flags: W
HStem: 0 64<64 122 195 381 454 512 576 640 704 768> 512 64<64 114 186 390 462 512 576 640 704 768>
VStem: 512 64<64 512> 640 64<64 512>
LayerCount: 2
Fore
SplineSet
462 512 m 1,0,-1
 328 288 l 1,1,-1
 454 64 l 1,2,-1
 512 64 l 1,3,-1
 512 512 l 1,4,-1
 462 512 l 1,0,-1
64 0 m 1,5,-1
 64 64 l 1,6,-1
 122 64 l 1,7,-1
 248 288 l 1,8,-1
 114 512 l 1,9,-1
 64 512 l 1,10,-1
 64 576 l 1,11,-1
 768 576 l 1,12,-1
 768 512 l 1,13,-1
 704 512 l 1,14,-1
 704 64 l 1,15,-1
 768 64 l 1,16,-1
 768 0 l 1,17,-1
 64 0 l 1,5,-1
186 512 m 1,18,-1
 288 330 l 1,19,-1
 390 512 l 1,20,-1
 186 512 l 1,18,-1
195 64 m 1,21,-1
 381 64 l 1,22,-1
 288 236 l 1,23,-1
 195 64 l 1,21,-1
576 512 m 1,24,-1
 576 64 l 1,25,-1
 640 64 l 1,26,-1
 640 512 l 1,27,-1
 576 512 l 1,24,-1
EndSplineSet
Validated: 19457
EndChar

StartChar: plusminus
Encoding: 177 177 189
Width: 448
VWidth: 1024
Flags: W
HStem: 63 65<64 384> 319 65<64 192 256 384>
VStem: 192 64<192 319 384 512>
LayerCount: 2
Fore
SplineSet
192 192 m 1,0,-1
 192 319 l 1,1,-1
 64 319 l 1,2,-1
 64 384 l 1,3,-1
 192 384 l 1,4,-1
 192 512 l 1,5,-1
 256 512 l 1,6,-1
 256 384 l 1,7,-1
 384 384 l 1,8,-1
 384 319 l 1,9,-1
 256 319 l 1,10,-1
 256 192 l 1,11,-1
 192 192 l 1,0,-1
64 63 m 1,12,-1
 64 128 l 1,13,-1
 384 128 l 1,14,-1
 384 63 l 1,15,-1
 64 63 l 1,12,-1
EndSplineSet
Validated: 19457
EndChar

StartChar: uni00AD
Encoding: 173 173 190
Width: 320
VWidth: 1024
Flags: W
HStem: 255 64<64 256>
VStem: 64 192<255 319>
LayerCount: 2
Fore
SplineSet
64 255 m 1,0,-1
 64 319 l 1,1,-1
 256 319 l 1,2,-1
 256 255 l 1,3,-1
 64 255 l 1,0,-1
EndSplineSet
Validated: 19457
EndChar

StartChar: Eth
Encoding: 208 208 191
Width: 576
VWidth: 0
Flags: W
HStem: 0 64<192 420.243> 255 65<64 128 192 320> 512 64<192 329.473>
VStem: 128 64<64 255 320 512> 448 64<90.9062 364.849>
LayerCount: 2
Fore
SplineSet
128 576 m 1,0,-1
 260 576 l 2,1,2
 373 576 373 576 442.5 477 c 128,-1,3
 512 378 512 378 512 249 c 2,4,-1
 512 207 l 2,5,6
 512 181 512 181 511.5 166.5 c 128,-1,7
 511 152 511 152 508 127 c 128,-1,8
 505 102 505 102 499 87 c 128,-1,9
 493 72 493 72 481.5 53.5 c 128,-1,10
 470 35 470 35 453.5 24.5 c 128,-1,11
 437 14 437 14 411 7 c 128,-1,12
 385 0 385 0 352 0 c 2,13,-1
 128 0 l 1,14,-1
 128 255 l 1,15,-1
 64 255 l 1,16,-1
 64 320 l 1,17,-1
 128 320 l 1,18,-1
 128 576 l 1,0,-1
352 64 m 2,19,20
 380 64 380 64 399 72.5 c 128,-1,21
 418 81 418 81 427.5 91.5 c 128,-1,22
 437 102 437 102 442 125 c 128,-1,23
 447 148 447 148 447.5 164 c 128,-1,24
 448 180 448 180 448 213 c 2,25,-1
 448 243 l 2,26,27
 448 356 448 356 391 434 c 128,-1,28
 334 512 334 512 260 512 c 2,29,-1
 192 512 l 1,30,-1
 192 320 l 1,31,-1
 320 320 l 1,32,-1
 320 255 l 1,33,-1
 192 255 l 1,34,-1
 192 64 l 1,35,-1
 352 64 l 2,19,20
EndSplineSet
Validated: 19457
EndChar

StartChar: periodcentered
Encoding: 183 183 192
Width: 256
VWidth: 1024
Flags: W
HStem: 191 128<64 192>
VStem: 64 128<191 319>
LayerCount: 2
Fore
SplineSet
64 191 m 1,0,-1
 64 319 l 1,1,-1
 192 319 l 1,2,-1
 192 191 l 1,3,-1
 64 191 l 1,0,-1
EndSplineSet
Validated: 19457
EndChar

StartChar: degree
Encoding: 176 176 193
Width: 384
VWidth: 0
Flags: W
HStem: 384 65<146.657 237.343> 576 64<145.489 238.511>
VStem: 64 64<466.899 558.511> 256 64<466.899 558.511>
LayerCount: 2
Fore
SplineSet
64 512 m 128,-1,1
 64 565 64 565 101.5 602.5 c 128,-1,2
 139 640 139 640 192 640 c 128,-1,3
 245 640 245 640 282.5 602.5 c 128,-1,4
 320 565 320 565 320 512 c 128,-1,5
 320 459 320 459 282.5 421.5 c 128,-1,6
 245 384 245 384 192 384 c 128,-1,7
 139 384 139 384 101.5 421.5 c 128,-1,0
 64 459 64 459 64 512 c 128,-1,1
128 512 m 128,-1,9
 128 486 128 486 147 467.5 c 128,-1,10
 166 449 166 449 192 449 c 128,-1,11
 218 449 218 449 237 467.5 c 128,-1,12
 256 486 256 486 256 512 c 128,-1,13
 256 538 256 538 237 557 c 128,-1,14
 218 576 218 576 192 576 c 128,-1,15
 166 576 166 576 147 557 c 128,-1,8
 128 538 128 538 128 512 c 128,-1,9
EndSplineSet
Validated: 19457
EndChar

StartChar: caron
Encoding: 711 711 209
Width: 448
VWidth: 1024
Flags: W
HStem: 447 193
AnchorPoint: "top" 224 384 mark 0
LayerCount: 2
Fore
SplineSet
64 592 m 1,0,-1
 112 640 l 1,1,-1
 224 537 l 1,2,-1
 336 640 l 1,3,-1
 384 592 l 1,4,-1
 224 447 l 1,5,-1
 64 592 l 1,0,-1
EndSplineSet
Validated: 19457
EndChar

StartChar: ij
Encoding: 307 307 264
Width: 384
VWidth: 0
Flags: W
HStem: -192 64<64 229.773> 0 21G<64 128> 428 20G<64 128 256 320> 576 64<64 128 256 320>
VStem: 64 64<0 448 576 640> 256 64<-101.599 448 576 640>
LayerCount: 2
Fore
SplineSet
64 448 m 29,0,-1
 128 448 l 1,1,-1
 128 0 l 1,2,-1
 64 0 l 1,3,-1
 64 448 l 29,0,-1
64 640 m 29,4,-1
 128 640 l 1,5,-1
 128 576 l 1,6,-1
 64 576 l 1,7,-1
 64 640 l 29,4,-1
256 640 m 29,8,-1
 320 640 l 1,9,-1
 320 576 l 1,10,-1
 256 576 l 1,11,-1
 256 640 l 29,8,-1
256 0 m 6,12,-1
 256 448 l 1,13,-1
 320 448 l 1,14,-1
 320 15 l 2,15,16
 320 -11 320 -11 319.5 -25.5 c 128,-1,17
 319 -40 319 -40 316 -65 c 128,-1,18
 313 -90 313 -90 307 -105 c 128,-1,19
 301 -120 301 -120 289.5 -138.5 c 128,-1,20
 278 -157 278 -157 261.5 -167.5 c 128,-1,21
 245 -178 245 -178 219 -185 c 128,-1,22
 193 -192 193 -192 160 -192 c 2,23,-1
 64 -192 l 1,24,-1
 64 -128 l 1,25,-1
 160 -128 l 2,26,27
 220 -128 220 -128 238 -97 c 128,-1,28
 256 -66 256 -66 256 0 c 6,12,-1
EndSplineSet
Validated: 19457
EndChar

StartChar: IJ
Encoding: 306 306 265
Width: 928
VWidth: 0
Flags: W
HStem: 0 64<64 192 256 384 571.757 772.243> 512 64<64 192 256 384>
VStem: 192 64<64 512> 480 64<90.9062 256> 800 64<90.9062 576>
LayerCount: 2
Fore
SplineSet
64 0 m 1,0,-1
 64 64 l 1,1,-1
 192 64 l 1,2,-1
 192 512 l 1,3,-1
 64 512 l 1,4,-1
 64 576 l 1,5,-1
 384 576 l 1,6,-1
 384 512 l 1,7,-1
 256 512 l 1,8,-1
 256 64 l 1,9,-1
 384 64 l 1,10,-1
 384 0 l 1,11,-1
 64 0 l 1,0,-1
544 256 m 5,12,-1
 544 213 l 2,13,14
 544 180 544 180 544.5 164 c 128,-1,15
 545 148 545 148 550 125 c 128,-1,16
 555 102 555 102 564.5 91.5 c 128,-1,17
 574 81 574 81 593 72.5 c 128,-1,18
 612 64 612 64 640 64 c 2,19,-1
 704 64 l 2,20,21
 732 64 732 64 751 72.5 c 128,-1,22
 770 81 770 81 779.5 91.5 c 128,-1,23
 789 102 789 102 794 125 c 128,-1,24
 799 148 799 148 799.5 164 c 128,-1,25
 800 180 800 180 800 213 c 2,26,-1
 800 576 l 1,27,-1
 864 576 l 1,28,-1
 864 207 l 2,29,30
 864 181 864 181 863.5 166.5 c 128,-1,31
 863 152 863 152 860 127 c 128,-1,32
 857 102 857 102 851 87 c 128,-1,33
 845 72 845 72 833.5 53.5 c 128,-1,34
 822 35 822 35 805.5 24.5 c 128,-1,35
 789 14 789 14 763 7 c 128,-1,36
 737 0 737 0 704 0 c 2,37,-1
 640 0 l 2,38,39
 607 0 607 0 581 7 c 128,-1,40
 555 14 555 14 538.5 24.5 c 128,-1,41
 522 35 522 35 510.5 53.5 c 128,-1,42
 499 72 499 72 493 87 c 128,-1,43
 487 102 487 102 484 127 c 128,-1,44
 481 152 481 152 480.5 166.5 c 128,-1,45
 480 181 480 181 480 207 c 2,46,-1
 480 256 l 1,47,-1
 544 256 l 5,12,-1
EndSplineSet
Validated: 19457
EndChar

StartChar: uni01C0
Encoding: 448 448 274
Width: 192
VWidth: 0
Flags: W
HStem: 620 20G<64 128>
VStem: 64 64<-193 640>
LayerCount: 2
Fore
SplineSet
64 -193 m 1,0,-1
 64 640 l 1,1,-1
 128 640 l 1,2,-1
 128 -193 l 1,3,-1
 64 -193 l 1,0,-1
EndSplineSet
Validated: 19457
EndChar

StartChar: uni01C1
Encoding: 449 449 275
Width: 352
VWidth: 0
Flags: W
HStem: 620 20G<64 128 224 288>
VStem: 64 64<-193 640> 224 64<-193 640>
LayerCount: 2
Fore
SplineSet
64 -193 m 1,0,-1
 64 640 l 1,1,-1
 128 640 l 1,2,-1
 128 -193 l 1,3,-1
 64 -193 l 1,0,-1
224 -193 m 1,4,-1
 224 640 l 1,5,-1
 288 640 l 1,6,-1
 288 -193 l 1,7,-1
 224 -193 l 1,4,-1
EndSplineSet
Validated: 19457
EndChar

StartChar: multiply
Encoding: 215 215 313
Width: 448
VWidth: 0
Flags: W
HStem: 147 282
VStem: 84 280
LayerCount: 2
Fore
SplineSet
84 191 m 25,0,-1
 182 289 l 1,1,-1
 84 384 l 1,2,-1
 128 429 l 1,3,-1
 226 328 l 1,4,-1
 320 428 l 1,5,-1
 364 384 l 1,6,-1
 266 289 l 1,7,-1
 364 191 l 1,8,-1
 320 147 l 1,9,-1
 224 246 l 1,10,-1
 128 147 l 1,11,-1
 84 191 l 25,0,-1
EndSplineSet
Validated: 19457
EndChar
